<?xml version="1.0" encoding="utf-8" standalone="no"?>
<!DOCTYPE svg PUBLIC "-//W3C//DTD SVG 1.1//EN"
  "http://www.w3.org/Graphics/SVG/1.1/DTD/svg11.dtd">
<!-- Created with matplotlib (https://matplotlib.org/) -->
<svg height="360pt" version="1.1" viewBox="0 0 360 360" width="360pt" xmlns="http://www.w3.org/2000/svg" xmlns:xlink="http://www.w3.org/1999/xlink">
 <defs>
  <style type="text/css">
*{stroke-linecap:butt;stroke-linejoin:round;}
  </style>
 </defs>
 <g id="figure_1">
  <g id="patch_1">
   <path d="M 0 360 
L 0.0 0.0L 360.0 360.0L 360.0 0.0z
" style="fill:#ffffff;"/>
  </g>
  <g id="axes_1">
   <g id="patch_2">
    <path d="M 320.4 179.1 
C 320.4 161.253776 316.884683 143.581083 310.055228 127.093322 
C 303.225774 110.60556 293.214998 95.623375 280.595812 83.004188 
C 267.976625 70.385002 252.99444 60.374226 236.506678 53.544772 
C 220.018917 46.715317 202.346224 43.2 184.5 43.2 
C 166.653776 43.2 148.981083 46.715317 132.493322 53.544772 
C 116.00556 60.374226 101.023375 70.385002 88.404188 83.004188 
C 75.785002 95.623375 65.774226 110.60556 58.944772 127.093322 
C 52.115317 143.581083 48.6 161.253776 48.6 179.1 
C 48.6 196.946224 52.115317 214.618917 58.944772 231.106678 
C 65.774226 247.59444 75.785002 262.576625 88.404188 275.195812 
C 101.023375 287.814998 116.00556 297.825774 132.493322 304.655228 
C 148.981083 311.484683 166.653776 315 184.5 315 
C 202.346224 315 220.018917 311.484683 236.506678 304.655228 
C 252.99444 297.825774 267.976625 287.814998 280.595812 275.195812 
C 293.214998 262.576625 303.225774 247.59444 310.055228 231.106678 
C 316.884683 214.618917 320.4 196.946224 320.4 179.1 
M 229.68553 179.1 
C 229.68553 185.033709 228.516719 190.909721 226.245986 196.391754 
C 223.975254 201.873786 220.646761 206.855228 216.450995 211.050995 
C 212.255228 215.246761 207.273786 218.575254 201.791754 220.845986 
C 196.309721 223.116719 190.433709 224.28553 184.5 224.28553 
C 178.566291 224.28553 172.690279 223.116719 167.208246 220.845986 
C 161.726214 218.575254 156.744772 215.246761 152.549005 211.050995 
C 148.353239 206.855228 145.024746 201.873786 142.754014 196.391754 
C 140.483281 190.909721 139.31447 185.033709 139.31447 179.1 
C 139.31447 173.166291 140.483281 167.290279 142.754014 161.808246 
C 145.024746 156.326214 148.353239 151.344772 152.549005 147.149005 
C 156.744772 142.953239 161.726214 139.624746 167.208246 137.354014 
C 172.690279 135.083281 178.566291 133.91447 184.5 133.91447 
C 190.433709 133.91447 196.309721 135.083281 201.791754 137.354014 
C 207.273786 139.624746 212.255228 142.953239 216.450995 147.149005 
C 220.646761 151.344772 223.975254 156.326214 226.245986 161.808246 
C 228.516719 167.290279 229.68553 173.166291 229.68553 179.1 
M 320.4 179.1 
z
" style="fill:#ffffff;"/>
   </g>
   <g id="patch_3">
    <path clip-path="url(#p8678d5c4cf)" d="M 183.317181 133.929954 
L 0.0 0.0L 183.340832 133.929341L 185.682819 133.929954L 185.83422 128.148188L 183.16578 128.148188z
" style="fill:#9e0142;"/>
   </g>
   <g id="patch_4">
    <path clip-path="url(#p8678d5c4cf)" d="M 185.288596 133.921352 
L 183.315667 133.872136L 187.651983 134.02454L 188.156301 126.812466L 185.414772 126.692768z
" style="fill:#9e0142;"/>
   </g>
   <g id="patch_5">
    <path clip-path="url(#p8678d5c4cf)" d="M 187.258511 133.99875 
L 185.289858 133.849066L 187.282125 134.000201L 189.615147 134.204929L 190.638177 125.225915L 187.810213 124.9785z
" style="fill:#9e0142;"/>
   </g>
   <g id="patch_6">
    <path clip-path="url(#p8678d5c4cf)" d="M 189.223174 134.162001 
L 187.264028 133.908548L 189.246703 134.16448L 191.568574 134.470779L 192.699546 127.330103L 189.978882 126.971921z
" style="fill:#9e0142;"/>
   </g>
   <g id="patch_7">
    <path clip-path="url(#p8678d5c4cf)" d="M 191.178847 134.410794 
L 189.230731 134.0901L 191.202245 134.414297L 193.508546 134.821583L 194.301298 130.925082L 191.766585 130.478144z
" style="fill:#9e0142;"/>
   </g>
   <g id="patch_8">
    <path clip-path="url(#p8678d5c4cf)" d="M 193.121806 134.744655 
L 191.184724 134.371468L 195.431369 135.256673L 196.568231 130.696967L 194.018473 130.1317z
" style="fill:#9e0142;"/>
   </g>
   <g id="patch_9">
    <path clip-path="url(#p8678d5c4cf)" d="M 195.048352 135.16295 
L 193.130772 134.698526L 197.333384 135.775222L 198.308721 132.482539L 195.850027 131.823734z
" style="fill:#9e0142;"/>
   </g>
   <g id="patch_10">
    <path clip-path="url(#p8678d5c4cf)" d="M 196.95482 135.664881 
L 195.056369 135.129558L 199.21097 136.376242L 201.329349 130.224021L 198.748314 129.410224z
" style="fill:#9e0142;"/>
   </g>
   <g id="patch_11">
    <path clip-path="url(#p8678d5c4cf)" d="M 198.837579 136.249493 
L 196.972755 135.602334L 198.860014 136.257006L 201.060552 137.058589L 201.59049 135.713264L 199.296382 134.878277z
" style="fill:#9e0142;"/>
   </g>
   <g id="patch_12">
    <path clip-path="url(#p8678d5c4cf)" d="M 200.693046 136.915674 
L 198.842167 136.235781L 200.715131 136.924158L 202.878611 137.820964L 203.099154 137.325616L 200.887362 136.409462z
" style="fill:#9e0142;"/>
   </g>
   <g id="patch_13">
    <path clip-path="url(#p8678d5c4cf)" d="M 202.517688 137.662155 
L 200.694989 136.910612L 202.539382 137.671594L 204.661685 138.661917L 205.548799 136.882641L 203.310466 135.838889z
" style="fill:#9e0142;"/>
   </g>
   <g id="patch_14">
    <path clip-path="url(#p8678d5c4cf)" d="M 206.060671 139.390183 
L 202.525616 137.643922L 206.081461 139.401478L 208.109375 140.573002L 208.581562 139.802462L 206.491885 138.595987z
" style="fill:#9e0142;"/>
   </g>
   <g id="patch_15">
    <path clip-path="url(#p8678d5c4cf)" d="M 207.772268 140.368441 
L 206.064984 139.382241L 207.792545 140.380632L 209.767428 141.639498L 209.868497 141.489656L 207.865357 140.213515z
" style="fill:#9e0142;"/>
   </g>
   <g id="patch_16">
    <path clip-path="url(#p8678d5c4cf)" d="M 214.144375 144.998048 
L 207.773199 140.366892L 214.162227 145.013574L 215.888507 146.59625L 216.390723 146.07619L 214.618685 144.452416z
" style="fill:#9e0142;"/>
   </g>
   <g id="patch_17">
    <path clip-path="url(#p8678d5c4cf)" d="M 215.603666 146.323575 
L 214.149118 144.992591L 215.620824 146.339865L 217.276425 147.996334L 217.407531 147.871919L 215.728081 146.192469z
" style="fill:#9e0142;"/>
   </g>
   <g id="patch_18">
    <path clip-path="url(#p8678d5c4cf)" d="M 224.020155 157.19362 
L 215.60491 146.322264L 224.03162 157.214316L 225.112485 159.291967L 225.437385 159.133503L 224.336316 157.018369z
" style="fill:#9e0142;"/>
   </g>
   <g id="patch_19">
    <path clip-path="url(#p8678d5c4cf)" d="M 225.779036 160.721389 
L 224.023317 157.191868L 225.788653 160.743005L 226.684326 162.906954L 227.021801 162.77741L 226.109268 160.57436z
" style="fill:#9e0142;"/>
   </g>
   <g id="patch_20">
    <path clip-path="url(#p8678d5c4cf)" d="M 227.223758 164.38903 
L 225.782338 160.719919L 227.231455 164.411403L 227.935119 166.64518L 228.2826 166.545541L 227.565548 164.271343z
" style="fill:#9e0142;"/>
   </g>
   <g id="patch_21">
    <path clip-path="url(#p8678d5c4cf)" d="M 227.824778 166.266616 
L 227.227176 164.387854L 227.831491 166.289303L 228.43705 168.551648L 228.612798 168.509454L 227.998077 166.215283z
" style="fill:#9e0142;"/>
   </g>
   <g id="patch_22">
    <path clip-path="url(#p8678d5c4cf)" d="M 228.343327 168.168631 
L 227.826511 166.266103L 228.349044 168.191589L 228.855345 170.478194L 229.210187 170.40922L 228.694073 168.08118z
" style="fill:#9e0142;"/>
   </g>
   <g id="patch_23">
    <path clip-path="url(#p8678d5c4cf)" d="M 228.778417 170.091454 
L 228.346834 168.167756L 228.783128 170.11464L 229.189206 172.421153L 229.367963 172.394438L 228.955531 170.05542z
" style="fill:#9e0142;"/>
   </g>
   <g id="patch_24">
    <path clip-path="url(#p8678d5c4cf)" d="M 229.129221 172.031426 
L 228.780188 170.091094L 229.132916 172.054795L 229.437999 174.376826L 229.797503 174.339041L 229.486255 171.974877z
" style="fill:#9e0142;"/>
   </g>
   <g id="patch_25">
    <path clip-path="url(#p8678d5c4cf)" d="M 229.395071 173.984853 
L 229.132791 172.03086L 229.397743 174.00836L 229.60125 176.341489L 229.781655 176.330455L 229.574651 173.964392z
" style="fill:#9e0142;"/>
   </g>
   <g id="patch_26">
    <path clip-path="url(#p8678d5c4cf)" d="M 229.57546 175.948017 
L 229.396867 173.984648L 229.577105 175.971619L 229.678648 178.311404L 231.124365 178.286169L 231.017875 175.847153z
" style="fill:#9e0142;"/>
   </g>
   <g id="patch_27">
    <path clip-path="url(#p8678d5c4cf)" d="M 229.670046 177.917181 
L 229.589884 175.947008L 229.670659 177.940832L 229.670046 180.282819L 232.018888 180.344326L 232.018888 177.855674z
" style="fill:#9e0142;"/>
   </g>
   <g id="patch_28">
    <path clip-path="url(#p8678d5c4cf)" d="M 229.678648 179.888596 
L 229.693534 177.916566L 229.678229 179.912252L 229.57546 182.251983L 233.361799 182.51675L 233.473654 179.954838z
" style="fill:#9e0142;"/>
   </g>
   <g id="patch_29">
    <path clip-path="url(#p8678d5c4cf)" d="M 229.60125 181.858511 
L 229.716598 179.889259L 229.395071 184.215147L 239.990308 185.422322L 240.245145 182.509519z
" style="fill:#9e0142;"/>
   </g>
   <g id="patch_30">
    <path clip-path="url(#p8678d5c4cf)" d="M 229.437999 183.823174 
L 229.707689 181.865021L 229.43552 183.846703L 229.129221 186.168574L 238.233582 187.610563L 238.605351 184.786702z
" style="fill:#9e0142;"/>
   </g>
   <g id="patch_31">
    <path clip-path="url(#p8678d5c4cf)" d="M 229.189206 185.778847 
L 229.529672 183.832809L 229.185703 185.802245L 228.778417 188.108546L 237.279873 189.838187L 237.769533 187.061185z
" style="fill:#9e0142;"/>
   </g>
   <g id="patch_32">
    <path clip-path="url(#p8678d5c4cf)" d="M 228.855345 187.721806 
L 229.275009 185.79167L 228.850824 187.745029L 228.343327 190.031369L 240.268711 193.004701L 240.919998 190.066937z
" style="fill:#9e0142;"/>
   </g>
   <g id="patch_33">
    <path clip-path="url(#p8678d5c4cf)" d="M 228.43705 189.648352 
L 228.975991 187.745257L 228.431521 189.671356L 227.824778 191.933384L 238.049425 194.962062L 238.806194 192.137764z
" style="fill:#9e0142;"/>
   </g>
   <g id="patch_34">
    <path clip-path="url(#p8678d5c4cf)" d="M 227.935119 191.55482 
L 228.540742 189.673247L 227.928592 191.577561L 227.223758 193.81097L 240.040885 198.22426L 240.965655 195.291266z
" style="fill:#9e0142;"/>
   </g>
   <g id="patch_35">
    <path clip-path="url(#p8678d5c4cf)" d="M 227.350507 193.437579 
L 228.065425 191.592184L 227.342994 193.460014L 226.541411 195.660552L 247.225785 203.808344L 248.432956 200.491668z
" style="fill:#9e0142;"/>
   </g>
   <g id="patch_36">
    <path clip-path="url(#p8678d5c4cf)" d="M 226.684326 195.293046 
L 227.561331 193.50812L 226.675842 195.315131L 225.779036 197.478611L 239.648792 203.653824L 240.85826 200.733909z
" style="fill:#9e0142;"/>
   </g>
   <g id="patch_37">
    <path clip-path="url(#p8678d5c4cf)" d="M 225.937845 197.117688 
L 226.826066 195.347454L 225.928406 197.139382L 224.938083 199.261685L 231.731681 202.648848L 232.899404 200.14466z
" style="fill:#9e0142;"/>
   </g>
   <g id="patch_38">
    <path clip-path="url(#p8678d5c4cf)" d="M 225.112485 198.908033 
L 226.007461 197.147958L 225.102108 198.929295L 224.020155 201.00638L 231.291864 205.037153L 232.585183 202.552711z
" style="fill:#9e0142;"/>
   </g>
   <g id="patch_39">
    <path clip-path="url(#p8678d5c4cf)" d="M 224.209817 200.660671 
L 225.187212 198.944479L 224.198522 200.681461L 223.026998 202.709375L 231.502937 207.903437L 232.945977 205.404019z
" style="fill:#9e0142;"/>
   </g>
   <g id="patch_40">
    <path clip-path="url(#p8678d5c4cf)" d="M 223.231559 202.372268 
L 224.297179 200.708105L 223.219368 202.392545L 221.960502 204.367428L 233.048811 211.846586L 234.6961 209.26086z
" style="fill:#9e0142;"/>
   </g>
   <g id="patch_41">
    <path clip-path="url(#p8678d5c4cf)" d="M 222.179573 204.039565 
L 223.346204 202.441154L 222.166509 204.059291L 220.822698 205.977383L 229.540146 212.427955L 231.22267 210.025061z
" style="fill:#9e0142;"/>
   </g>
   <g id="patch_42">
    <path clip-path="url(#p8678d5c4cf)" d="M 221.055862 205.659388 
L 222.270004 204.09942L 221.04195 205.678525L 219.615752 207.536175L 222.003623 209.469835L 223.54166 207.465427z
" style="fill:#9e0142;"/>
   </g>
   <g id="patch_43">
    <path clip-path="url(#p8678d5c4cf)" d="M 219.862564 207.228654 
L 221.08072 205.677449L 218.341961 209.040838L 220.237111 210.717525L 221.842868 208.803858z
" style="fill:#9e0142;"/>
   </g>
   <g id="patch_44">
    <path clip-path="url(#p8678d5c4cf)" d="M 218.601952 208.744375 
L 219.882367 207.244406L 217.00375 210.488507L 222.594395 215.88733L 224.467488 213.843207z
" style="fill:#9e0142;"/>
   </g>
   <g id="patch_45">
    <path clip-path="url(#p8678d5c4cf)" d="M 217.276425 210.203666 
L 218.660608 208.795363L 217.260135 210.220824L 215.603666 211.876425L 219.70935 216.202914L 221.602914 214.30935z
" style="fill:#9e0142;"/>
   </g>
   <g id="patch_46">
    <path clip-path="url(#p8678d5c4cf)" d="M 215.888507 211.60375 
L 217.31969 210.244723L 214.144375 213.201952L 225.409237 226.160694L 227.816139 223.955175z
" style="fill:#9e0142;"/>
   </g>
   <g id="patch_47">
    <path clip-path="url(#p8678d5c4cf)" d="M 214.440838 212.941961 
L 216.007783 211.727264L 214.423114 212.957634L 212.628654 214.462564L 218.366899 221.676527L 220.548769 219.845721z
" style="fill:#9e0142;"/>
   </g>
   <g id="patch_48">
    <path clip-path="url(#p8678d5c4cf)" d="M 212.936175 214.215752 
L 214.501917 213.010999L 212.917785 214.230636L 211.059388 215.655862L 212.546714 217.70299L 214.528601 216.182234z
" style="fill:#9e0142;"/>
   </g>
   <g id="patch_49">
    <path clip-path="url(#p8678d5c4cf)" d="M 211.377383 215.422698 
L 212.9521 214.235417L 209.439565 216.779573L 212.432313 221.301122L 214.602669 219.781422z
" style="fill:#9e0142;"/>
   </g>
   <g id="patch_50">
    <path clip-path="url(#p8678d5c4cf)" d="M 209.767428 216.560502 
L 211.409636 215.466286L 207.772268 217.831559L 209.820228 221.239936L 211.990961 219.857026z
" style="fill:#9e0142;"/>
   </g>
   <g id="patch_51">
    <path clip-path="url(#p8678d5c4cf)" d="M 208.109375 217.626998 
L 209.789663 216.593467L 206.060671 218.809817L 210.286563 226.592941L 212.736812 225.178289z
" style="fill:#9e0142;"/>
   </g>
   <g id="patch_52">
    <path clip-path="url(#p8678d5c4cf)" d="M 206.40638 218.620155 
L 208.155649 217.702511L 206.385684 218.63162L 204.308033 219.712485L 210.250442 231.896231L 212.978294 230.476202z
" style="fill:#9e0142;"/>
   </g>
   <g id="patch_53">
    <path clip-path="url(#p8678d5c4cf)" d="M 204.661685 219.538083 
L 206.472099 218.738715L 204.640509 219.548635L 202.517688 220.537845L 206.337438 229.322669L 208.935962 228.110957z
" style="fill:#9e0142;"/>
   </g>
   <g id="patch_54">
    <path clip-path="url(#p8678d5c4cf)" d="M 202.878611 220.379036 
L 204.704427 219.623812L 202.856995 220.388653L 200.693046 221.284326L 204.255516 230.564878L 206.921905 229.460424z
" style="fill:#9e0142;"/>
   </g>
   <g id="patch_55">
    <path clip-path="url(#p8678d5c4cf)" d="M 201.060552 221.141411 
L 202.919044 220.46985L 201.038537 221.150076L 198.837579 221.950507L 202.56535 233.091639L 205.366296 232.072178z
" style="fill:#9e0142;"/>
   </g>
   <g id="patch_56">
    <path clip-path="url(#p8678d5c4cf)" d="M 199.21097 221.823758 
L 201.10361 221.250719L 199.188597 221.831455L 196.95482 222.535119L 199.943977 232.959548L 202.741602 232.07746z
" style="fill:#9e0142;"/>
   </g>
   <g id="patch_57">
    <path clip-path="url(#p8678d5c4cf)" d="M 197.333384 222.424778 
L 199.246276 221.926295L 197.310697 222.431491L 195.048352 223.03705L 199.647434 242.193604L 202.928739 241.314381z
" style="fill:#9e0142;"/>
   </g>
   <g id="patch_58">
    <path clip-path="url(#p8678d5c4cf)" d="M 195.431369 222.943327 
L 197.389337 222.613674L 195.408411 222.949044L 193.121806 223.455345L 195.949758 238.003898L 199.016858 237.323938z
" style="fill:#9e0142;"/>
   </g>
   <g id="patch_59">
    <path clip-path="url(#p8678d5c4cf)" d="M 193.508546 223.378417 
L 195.467224 223.087133L 193.48536 223.383128L 191.178847 223.789206L 192.861916 235.050886L 195.778699 234.536578z
" style="fill:#9e0142;"/>
   </g>
   <g id="patch_60">
    <path clip-path="url(#p8678d5c4cf)" d="M 191.568574 223.729221 
L 193.531247 223.489999L 191.545205 223.732916L 189.223174 224.037999L 190.394521 235.182623L 193.321581 234.797268z
" style="fill:#9e0142;"/>
   </g>
   <g id="patch_61">
    <path clip-path="url(#p8678d5c4cf)" d="M 189.615147 223.995071 
L 191.586104 223.839902L 189.59164 223.997743L 187.258511 224.20125L 187.931587 235.205955L 190.863243 234.949468z
" style="fill:#9e0142;"/>
   </g>
   <g id="patch_62">
    <path clip-path="url(#p8678d5c4cf)" d="M 187.651983 224.17546 
L 189.627628 224.104615L 187.628381 224.177105L 185.288596 224.278648L 185.585108 241.26582L 188.837129 241.123833z
" style="fill:#9e0142;"/>
   </g>
   <g id="patch_63">
    <path clip-path="url(#p8678d5c4cf)" d="M 185.682819 224.270046 
L 187.663835 224.344944L 185.659168 224.270659L 183.317181 224.270046L 182.829859 242.880105L 186.170141 242.880105z
" style="fill:#9e0142;"/>
   </g>
   <g id="patch_64">
    <path clip-path="url(#p8678d5c4cf)" d="M 183.711404 224.278648 
L 185.687692 224.456147L 183.687748 224.278229L 181.348017 224.17546L 180.730228 233.010251L 183.556839 233.133663z
" style="fill:#9e0142;"/>
   </g>
   <g id="patch_65">
    <path clip-path="url(#p8678d5c4cf)" d="M 181.741489 224.20125 
L 183.709858 224.367198L 181.717875 224.199799L 179.384853 223.995071L 177.236491 242.851001L 180.582915 243.143775z
" style="fill:#9e0142;"/>
   </g>
   <g id="patch_66">
    <path clip-path="url(#p8678d5c4cf)" d="M 179.776826 224.037999 
L 181.729904 224.390675L 179.753297 224.03552L 177.431426 223.729221L 174.999836 239.081673L 178.152054 239.496671z
" style="fill:#9e0142;"/>
   </g>
   <g id="patch_67">
    <path clip-path="url(#p8678d5c4cf)" d="M 177.821153 223.789206 
L 179.760578 224.192586L 177.797755 223.785703L 175.491454 223.378417L 172.78889 236.661942L 175.817499 237.195968z
" style="fill:#9e0142;"/>
   </g>
   <g id="patch_68">
    <path clip-path="url(#p8678d5c4cf)" d="M 175.878194 223.455345 
L 177.801117 223.923274L 175.854971 223.450824L 173.568631 222.943327L 169.370985 239.779164L 172.567421 240.487797z
" style="fill:#9e0142;"/>
   </g>
   <g id="patch_69">
    <path clip-path="url(#p8678d5c4cf)" d="M 173.951648 223.03705 
L 175.845087 223.625669L 173.928644 223.031521L 171.666616 222.424778L 165.711926 242.527475L 169.057212 243.423841z
" style="fill:#9e0142;"/>
   </g>
   <g id="patch_70">
    <path clip-path="url(#p8678d5c4cf)" d="M 172.04518 222.535119 
L 173.902703 223.240918L 172.022439 222.528592L 169.78903 221.823758L 163.25736 240.793106L 166.51524 241.820312z
" style="fill:#9e0142;"/>
   </g>
   <g id="patch_71">
    <path clip-path="url(#p8678d5c4cf)" d="M 170.162421 221.950507 
L 171.989881 222.727971L 170.139986 221.942994L 167.939448 221.141411L 156.413304 250.402233L 160.183466 251.77446z
" style="fill:#9e0142;"/>
   </g>
   <g id="patch_72">
    <path clip-path="url(#p8678d5c4cf)" d="M 168.306954 221.284326 
L 170.062631 222.248746L 168.284869 221.275842L 166.121389 220.379036L 155.682338 243.825528L 159.109304 245.245024z
" style="fill:#9e0142;"/>
   </g>
   <g id="patch_73">
    <path clip-path="url(#p8678d5c4cf)" d="M 166.482312 220.537845 
L 168.214978 221.523933L 166.460618 220.528406L 164.338315 219.538083L 154.33812 239.595373L 157.545539 241.091017z
" style="fill:#9e0142;"/>
   </g>
   <g id="patch_74">
    <path clip-path="url(#p8678d5c4cf)" d="M 164.691967 219.712485 
L 166.392944 220.743377L 164.670705 219.702108L 162.59362 218.620155L 149.449793 242.332248L 152.807148 244.079977z
" style="fill:#9e0142;"/>
   </g>
   <g id="patch_75">
    <path clip-path="url(#p8678d5c4cf)" d="M 162.939329 218.809817 
L 164.573119 219.95616L 162.918539 218.798522L 160.890625 217.626998L 145.780626 242.284276L 149.140499 244.2241z
" style="fill:#9e0142;"/>
   </g>
   <g id="patch_76">
    <path clip-path="url(#p8678d5c4cf)" d="M 161.227732 217.831559 
L 162.80134 219.06396L 161.207455 217.819368L 159.232572 216.560502L 146.497789 235.440595L 149.498508 237.352264z
" style="fill:#9e0142;"/>
   </g>
   <g id="patch_77">
    <path clip-path="url(#p8678d5c4cf)" d="M 159.560435 216.779573 
L 161.110439 218.026766L 159.540709 216.766509L 157.622617 215.422698L 144.506454 233.148175L 147.389927 235.167204z
" style="fill:#9e0142;"/>
   </g>
   <g id="patch_78">
    <path clip-path="url(#p8678d5c4cf)" d="M 157.940612 215.655862 
L 159.43873 216.963449L 157.921475 215.64195L 156.063825 214.215752L 144.916844 227.981127L 147.529332 229.985759z
" style="fill:#9e0142;"/>
   </g>
   <g id="patch_79">
    <path clip-path="url(#p8678d5c4cf)" d="M 156.371346 214.462564 
L 157.836499 215.799161L 156.352834 214.447831L 154.559162 212.941961L 136.714422 233.11177L 139.606669 235.538653z
" style="fill:#9e0142;"/>
   </g>
   <g id="patch_80">
    <path clip-path="url(#p8678d5c4cf)" d="M 154.855625 213.201952 
L 156.203699 214.673325L 154.837773 213.186426L 153.111493 211.60375L 138.296118 226.94552L 140.86348 229.298074z
" style="fill:#9e0142;"/>
   </g>
   <g id="patch_81">
    <path clip-path="url(#p8678d5c4cf)" d="M 153.396334 211.876425 
L 154.715704 213.362914L 153.379176 211.860135L 151.723575 210.203666L 135.859785 225.257841L 138.342159 227.740215z
" style="fill:#9e0142;"/>
   </g>
   <g id="patch_82">
    <path clip-path="url(#p8678d5c4cf)" d="M 151.99625 210.488507 
L 153.245792 212.035063L 151.979819 210.471483L 150.398048 208.744375L 135.802412 221.432167L 138.084645 223.922787z
" style="fill:#9e0142;"/>
   </g>
   <g id="patch_83">
    <path clip-path="url(#p8678d5c4cf)" d="M 150.658039 209.040838 
L 151.857134 210.622849L 150.642366 209.023114L 149.137436 207.228654L 134.002258 219.267718L 136.173679 221.855517z
" style="fill:#9e0142;"/>
   </g>
   <g id="patch_84">
    <path clip-path="url(#p8678d5c4cf)" d="M 149.384248 207.536175 
L 150.513195 209.168985L 149.369364 207.517785L 147.944138 205.659388L 126.595515 221.170071L 128.876649 224.142902z
" style="fill:#9e0142;"/>
   </g>
   <g id="patch_85">
    <path clip-path="url(#p8678d5c4cf)" d="M 148.177302 205.977383 
L 149.179172 207.702243L 148.163234 205.958361L 146.820427 204.039565L 127.227049 217.008139L 129.289499 219.953622z
" style="fill:#9e0142;"/>
   </g>
   <g id="patch_86">
    <path clip-path="url(#p8678d5c4cf)" d="M 147.039498 204.367428 
L 147.988424 206.117145L 147.026273 204.34781L 145.768441 202.372268L 119.89576 217.918144L 122.015883 221.246069z
" style="fill:#9e0142;"/>
   </g>
   <g id="patch_87">
    <path clip-path="url(#p8678d5c4cf)" d="M 145.973002 202.709375 
L 146.789262 204.536214L 145.960646 202.689199L 144.790183 200.660671L 117.15215 215.666899L 119.158212 219.141499z
" style="fill:#9e0142;"/>
   </g>
   <g id="patch_88">
    <path clip-path="url(#p8678d5c4cf)" d="M 144.979845 201.00638 
L 145.704854 202.873696L 144.96838 200.985684L 143.887515 198.908033L 120.332273 210.396692L 122.058155 213.71208z
" style="fill:#9e0142;"/>
   </g>
   <g id="patch_89">
    <path clip-path="url(#p8678d5c4cf)" d="M 144.061917 199.261685 
L 144.750628 201.133437L 144.051365 199.240509L 143.062155 197.117688L 100.464049 215.639871L 102.491567 219.987897z
" style="fill:#9e0142;"/>
   </g>
   <g id="patch_90">
    <path clip-path="url(#p8678d5c4cf)" d="M 143.220964 197.478611 
L 143.646213 199.468947L 143.211347 197.456995L 142.315674 195.293046L 108.399475 208.312255L 110.03262 212.255014z
" style="fill:#9e0142;"/>
   </g>
   <g id="patch_91">
    <path clip-path="url(#p8678d5c4cf)" d="M 142.458589 195.660552 
L 142.889081 197.626375L 142.449924 195.638537L 141.649493 193.437579L 112.68255 203.129783L 114.038595 206.855485z
" style="fill:#9e0142;"/>
   </g>
   <g id="patch_92">
    <path clip-path="url(#p8678d5c4cf)" d="M 141.776242 193.81097 
L 142.174389 195.772502L 141.768545 193.788597L 141.064881 191.55482L 110.834038 200.223375L 112.040507 204.049804z
" style="fill:#9e0142;"/>
   </g>
   <g id="patch_93">
    <path clip-path="url(#p8678d5c4cf)" d="M 141.175222 191.933384 
L 141.478885 193.913358L 141.168509 191.910697L 140.56295 189.648352L 116.13395 195.513236L 117.086646 199.068745z
" style="fill:#9e0142;"/>
   </g>
   <g id="patch_94">
    <path clip-path="url(#p8678d5c4cf)" d="M 140.656673 190.031369 
L 140.934336 192.004737L 140.650956 190.008411L 140.144655 187.721806L 102.886166 194.964122L 103.828279 199.213719z
" style="fill:#9e0142;"/>
   </g>
   <g id="patch_95">
    <path clip-path="url(#p8678d5c4cf)" d="M 140.221583 188.108546 
L 140.288389 190.123193L 140.216872 188.08536L 139.810794 185.778847L 91.725208 192.965285L 92.578006 197.801741z
" style="fill:#9e0142;"/>
   </g>
   <g id="patch_96">
    <path clip-path="url(#p8678d5c4cf)" d="M 139.870779 186.168574 
L 139.745147 188.205478L 139.867084 186.145205L 139.562001 183.823174L 88.512434 189.1887L 89.171984 194.198475z
" style="fill:#9e0142;"/>
   </g>
   <g id="patch_97">
    <path clip-path="url(#p8678d5c4cf)" d="M 139.604929 184.215147 
L 139.363791 186.248873L 139.602257 184.19164L 139.39875 181.858511L 104.580585 183.988081L 104.945934 188.164041z
" style="fill:#9e0142;"/>
   </g>
   <g id="patch_98">
    <path clip-path="url(#p8678d5c4cf)" d="M 139.42454 182.251983 
L 139.258339 184.254636L 139.422895 182.228381L 139.321352 179.888596L 97.756996 180.614105L 97.955116 185.151808z
" style="fill:#9e0142;"/>
   </g>
   <g id="patch_99">
    <path clip-path="url(#p8678d5c4cf)" d="M 139.329954 180.282819 
L 139.009845 182.280981L 139.329341 180.259168L 139.329954 177.917181L 69.768083 176.095639L 69.768083 182.104361z
" style="fill:#9e0142;"/>
   </g>
   <g id="patch_100">
    <path clip-path="url(#p8678d5c4cf)" d="M 139.321352 178.311404 
L 138.634335 180.301035L 139.321771 178.287748L 139.42454 175.948017L 93.627872 172.745602L 93.419846 177.51019z
" style="fill:#9e0142;"/>
   </g>
   <g id="patch_101">
    <path clip-path="url(#p8678d5c4cf)" d="M 139.39875 176.341489 
L 138.862337 178.303392L 139.400201 176.317875L 139.604929 173.984853L 93.811957 168.767403L 93.395475 173.527809z
" style="fill:#9e0142;"/>
   </g>
   <g id="patch_102">
    <path clip-path="url(#p8678d5c4cf)" d="M 139.562001 174.376826 
L 138.938717 176.313353L 139.56448 174.353297L 139.870779 172.031426L 95.063041 164.934577L 94.44425 169.634759z
" style="fill:#9e0142;"/>
   </g>
   <g id="patch_103">
    <path clip-path="url(#p8678d5c4cf)" d="M 139.810794 172.421153 
L 139.110824 174.329405L 139.814297 172.397755L 140.221583 170.091454L 92.932233 160.470327L 92.082722 165.288145z
" style="fill:#9e0142;"/>
   </g>
   <g id="patch_104">
    <path clip-path="url(#p8678d5c4cf)" d="M 140.144655 170.478194 
L 139.333513 172.349823L 140.149176 170.454971L 140.656673 168.168631L 104.880519 159.248634L 103.950694 163.442801z
" style="fill:#9e0142;"/>
   </g>
   <g id="patch_105">
    <path clip-path="url(#p8678d5c4cf)" d="M 140.56295 168.551648 
L 139.782716 170.40784L 140.568479 168.528644L 141.175222 166.266616L 96.290752 152.97123L 95.044166 157.623554z
" style="fill:#9e0142;"/>
   </g>
   <g id="patch_106">
    <path clip-path="url(#p8678d5c4cf)" d="M 141.064881 166.64518 
L 140.107762 168.442367L 141.071408 166.622439L 141.776242 164.38903L 103.495755 151.208002L 102.147014 155.485661z
" style="fill:#9e0142;"/>
   </g>
   <g id="patch_107">
    <path clip-path="url(#p8678d5c4cf)" d="M 141.649493 164.762421 
L 140.675702 166.533585L 141.657006 164.739986L 142.458589 162.539448L 98.735522 145.316474L 97.084966 149.851339z
" style="fill:#9e0142;"/>
   </g>
   <g id="patch_108">
    <path clip-path="url(#p8678d5c4cf)" d="M 142.315674 162.906954 
L 141.203848 164.61331L 142.324158 162.884869L 143.220964 160.721389L 101.116348 141.975206L 99.287661 146.390048z
" style="fill:#9e0142;"/>
   </g>
   <g id="patch_109">
    <path clip-path="url(#p8678d5c4cf)" d="M 143.062155 161.082312 
L 141.885394 162.741785L 143.071594 161.060618L 144.061917 158.938315L 91.330656 132.647479L 89.027204 137.587247z
" style="fill:#9e0142;"/>
   </g>
   <g id="patch_110">
    <path clip-path="url(#p8678d5c4cf)" d="M 143.887515 159.291967 
L 142.521805 160.847361L 143.897892 159.270705L 144.979845 157.19362L 93.761724 128.802952L 91.253734 133.620757z
" style="fill:#9e0142;"/>
   </g>
   <g id="patch_111">
    <path clip-path="url(#p8678d5c4cf)" d="M 144.790183 157.539329 
L 143.361177 159.035255L 144.801478 157.518539L 145.973002 155.490625L 94.655041 124.042939L 91.896707 128.820514z
" style="fill:#9e0142;"/>
   </g>
   <g id="patch_112">
    <path clip-path="url(#p8678d5c4cf)" d="M 145.768441 155.827732 
L 144.261248 157.25214L 145.780632 155.807455L 147.039498 153.832572L 93.096375 117.447476L 89.994997 122.315665z
" style="fill:#9e0142;"/>
   </g>
   <g id="patch_113">
    <path clip-path="url(#p8678d5c4cf)" d="M 146.820427 154.160435 
L 145.210707 155.492611L 146.833491 154.140709L 148.177302 152.222617L 100.957794 117.282019L 97.836983 121.739z
" style="fill:#9e0142;"/>
   </g>
   <g id="patch_114">
    <path clip-path="url(#p8678d5c4cf)" d="M 147.944138 152.540612 
L 146.330593 153.83622L 147.95805 152.521475L 149.384248 150.663825L 107.807197 116.995393L 104.661998 121.094296z
" style="fill:#9e0142;"/>
   </g>
   <g id="patch_115">
    <path clip-path="url(#p8678d5c4cf)" d="M 149.137436 150.971346 
L 147.511317 152.226149L 149.152169 150.952834L 150.658039 149.159162L 95.29259 100.175951L 91.28428 104.952869z
" style="fill:#9e0142;"/>
   </g>
   <g id="patch_116">
    <path clip-path="url(#p8678d5c4cf)" d="M 150.398048 149.455625 
L 148.558904 150.511161L 150.413574 149.437773L 151.99625 147.711493L 112.081645 109.166407L 108.52085 113.052333z
" style="fill:#9e0142;"/>
   </g>
   <g id="patch_117">
    <path clip-path="url(#p8678d5c4cf)" d="M 151.723575 147.996334 
L 149.979276 149.091592L 151.739865 147.979176L 153.396334 146.323575L 97.658564 87.58822L 92.98822 92.258564z
" style="fill:#9e0142;"/>
   </g>
   <g id="patch_118">
    <path clip-path="url(#p8678d5c4cf)" d="M 153.111493 146.59625 
L 151.136221 147.438956L 153.128517 146.579819L 154.855625 144.998048L 109.677598 93.026672L 105.275409 97.060535z
" style="fill:#9e0142;"/>
   </g>
   <g id="patch_119">
    <path clip-path="url(#p8678d5c4cf)" d="M 154.559162 145.258039 
L 152.633133 146.100893L 154.576886 145.242366L 156.371346 143.737436L 106.752401 81.357872L 101.743524 85.560819z
" style="fill:#9e0142;"/>
   </g>
   <g id="patch_120">
    <path clip-path="url(#p8678d5c4cf)" d="M 156.063825 143.984248 
L 154.031006 144.661067L 156.082215 143.969364L 157.940612 142.544138L 107.159062 72.649331L 101.693857 76.84293z
" style="fill:#9e0142;"/>
   </g>
   <g id="patch_121">
    <path clip-path="url(#p8678d5c4cf)" d="M 157.622617 142.777302 
L 155.520125 143.312835L 157.641639 142.763234L 159.560435 141.420427L 120.155922 81.886702L 115.156352 85.387438z
" style="fill:#9e0142;"/>
   </g>
   <g id="patch_122">
    <path clip-path="url(#p8678d5c4cf)" d="M 159.232572 141.639498 
L 157.197954 142.203403L 159.25219 141.626273L 161.227732 140.368441L 125.016082 80.102136L 119.916455 83.350957z
" style="fill:#9e0142;"/>
   </g>
   <g id="patch_123">
    <path clip-path="url(#p8678d5c4cf)" d="M 160.890625 140.573002 
L 158.839411 141.056612L 160.910801 140.560646L 162.939329 139.390183L 121.715325 63.465013L 115.749501 66.909383z
" style="fill:#9e0142;"/>
   </g>
   <g id="patch_124">
    <path clip-path="url(#p8678d5c4cf)" d="M 162.59362 139.579845 
L 160.439214 139.836366L 162.614316 139.56838L 164.691967 138.487515L 139.337686 86.503533L 134.553454 88.994047z
" style="fill:#9e0142;"/>
   </g>
   <g id="patch_125">
    <path clip-path="url(#p8678d5c4cf)" d="M 164.338315 138.661917 
L 162.313219 139.073987L 164.359491 138.651365L 166.482312 137.662155L 140.536841 77.991657L 135.305489 80.431076z
" style="fill:#9e0142;"/>
   </g>
   <g id="patch_126">
    <path clip-path="url(#p8678d5c4cf)" d="M 166.121389 137.820964 
L 164.047987 138.079608L 166.143005 137.811347L 168.306954 136.915674L 153.215036 97.599881L 148.992524 99.348903z
" style="fill:#9e0142;"/>
   </g>
   <g id="patch_127">
    <path clip-path="url(#p8678d5c4cf)" d="M 167.939448 137.058589 
L 165.950101 137.436244L 167.961463 137.049924L 170.162421 136.249493L 154.448434 89.285337L 149.789083 90.981203z
" style="fill:#9e0142;"/>
   </g>
   <g id="patch_128">
    <path clip-path="url(#p8678d5c4cf)" d="M 169.78903 136.376242 
L 167.757944 136.597815L 169.811403 136.368545L 172.04518 135.664881L 162.131143 101.090526L 158.079099 102.368131z
" style="fill:#9e0142;"/>
   </g>
   <g id="patch_129">
    <path clip-path="url(#p8678d5c4cf)" d="M 171.666616 135.775222 
L 169.671931 136.036161L 171.689303 135.768509L 173.951648 135.16295L 168.508698 112.491432L 165.04459 113.419637z
" style="fill:#9e0142;"/>
   </g>
   <g id="patch_130">
    <path clip-path="url(#p8678d5c4cf)" d="M 173.568631 135.256673 
L 171.600396 135.551666L 173.591589 135.250956L 175.878194 134.744655L 172.463959 117.179939L 169.239809 117.894716z
" style="fill:#9e0142;"/>
   </g>
   <g id="patch_131">
    <path clip-path="url(#p8678d5c4cf)" d="M 175.491454 134.821583 
L 173.525343 135.083054L 175.51464 134.816872L 177.821153 134.410794L 174.775599 114.032516L 171.383557 114.630625z
" style="fill:#9e0142;"/>
   </g>
   <g id="patch_132">
    <path clip-path="url(#p8678d5c4cf)" d="M 177.431426 134.470779 
L 175.450375 134.619673L 177.454795 134.467084L 179.776826 134.162001L 177.245205 110.075234L 173.64267 110.549516z
" style="fill:#9e0142;"/>
   </g>
   <g id="patch_133">
    <path clip-path="url(#p8678d5c4cf)" d="M 179.384853 134.204929 
L 177.393538 134.231566L 179.40836 134.202257L 181.741489 133.99875L 180.649119 116.138655L 177.359254 116.426481z
" style="fill:#9e0142;"/>
   </g>
   <g id="patch_134">
    <path clip-path="url(#p8678d5c4cf)" d="M 181.348017 134.02454 
L 179.364597 134.027145L 181.371619 134.022895L 183.711404 133.921352L 183.50006 121.813474L 180.503285 121.944316z
" style="fill:#9e0142;"/>
   </g>
   <g id="matplotlib.axis_1">
    <g id="xtick_1">
     <g id="line2d_1">
      <path clip-path="url(#p8678d5c4cf)" d="M 184.5 133.91447 
L 184.5 43.2 
" style="fill:none;stroke:#b0b0b0;stroke-linecap:square;stroke-width:0.8;"/>
     </g>
     <g id="text_1">
      <!-- 0:00 -->
      <defs>
       <path d="M 31.78125 66.40625 
Q 24.171875 66.40625 20.328125 58.90625 
Q 16.5 51.421875 16.5 36.375 
Q 16.5 21.390625 20.328125 13.890625 
Q 24.171875 6.390625 31.78125 6.390625 
Q 39.453125 6.390625 43.28125 13.890625 
Q 47.125 21.390625 47.125 36.375 
Q 47.125 51.421875 43.28125 58.90625 
Q 39.453125 66.40625 31.78125 66.40625 
z
M 31.78125 74.21875 
Q 44.046875 74.21875 50.515625 64.515625 
Q 56.984375 54.828125 56.984375 36.375 
Q 56.984375 17.96875 50.515625 8.265625 
Q 44.046875 -1.421875 31.78125 -1.421875 
Q 19.53125 -1.421875 13.0625 8.265625 
Q 6.59375 17.96875 6.59375 36.375 
Q 6.59375 54.828125 13.0625 64.515625 
Q 19.53125 74.21875 31.78125 74.21875 
z
" id="DejaVuSans-48"/>
       <path d="M 11.71875 12.40625 
L 22.015625 12.40625 
L 22.015625 0 
L 11.71875 0 
z
M 11.71875 51.703125 
L 22.015625 51.703125 
L 22.015625 39.3125 
L 11.71875 39.3125 
z
" id="DejaVuSans-58"/>
      </defs>
      <g transform="translate(173.271875 31.959375)scale(0.1 -0.1)">
       <use xlink:href="#DejaVuSans-48"/>
       <use x="63.623047" xlink:href="#DejaVuSans-58"/>
       <use x="97.314453" xlink:href="#DejaVuSans-48"/>
       <use x="160.9375" xlink:href="#DejaVuSans-48"/>
      </g>
     </g>
    </g>
    <g id="xtick_2">
     <g id="line2d_2">
      <path clip-path="url(#p8678d5c4cf)" d="M 216.450995 147.149005 
L 280.595812 83.004188 
" style="fill:none;stroke:#b0b0b0;stroke-linecap:square;stroke-width:0.8;"/>
     </g>
     <g id="text_2">
      <!-- 3:00 -->
      <defs>
       <path d="M 40.578125 39.3125 
Q 47.65625 37.796875 51.625 33 
Q 55.609375 28.21875 55.609375 21.1875 
Q 55.609375 10.40625 48.1875 4.484375 
Q 40.765625 -1.421875 27.09375 -1.421875 
Q 22.515625 -1.421875 17.65625 -0.515625 
Q 12.796875 0.390625 7.625 2.203125 
L 7.625 11.71875 
Q 11.71875 9.328125 16.59375 8.109375 
Q 21.484375 6.890625 26.8125 6.890625 
Q 36.078125 6.890625 40.9375 10.546875 
Q 45.796875 14.203125 45.796875 21.1875 
Q 45.796875 27.640625 41.28125 31.265625 
Q 36.765625 34.90625 28.71875 34.90625 
L 20.21875 34.90625 
L 20.21875 43.015625 
L 29.109375 43.015625 
Q 36.375 43.015625 40.234375 45.921875 
Q 44.09375 48.828125 44.09375 54.296875 
Q 44.09375 59.90625 40.109375 62.90625 
Q 36.140625 65.921875 28.71875 65.921875 
Q 24.65625 65.921875 20.015625 65.03125 
Q 15.375 64.15625 9.8125 62.3125 
L 9.8125 71.09375 
Q 15.4375 72.65625 20.34375 73.4375 
Q 25.25 74.21875 29.59375 74.21875 
Q 40.828125 74.21875 47.359375 69.109375 
Q 53.90625 64.015625 53.90625 55.328125 
Q 53.90625 49.265625 50.4375 45.09375 
Q 46.96875 40.921875 40.578125 39.3125 
z
" id="DejaVuSans-51"/>
      </defs>
      <g transform="translate(279.267181 75.864069)scale(0.1 -0.1)">
       <use xlink:href="#DejaVuSans-51"/>
       <use x="63.623047" xlink:href="#DejaVuSans-58"/>
       <use x="97.314453" xlink:href="#DejaVuSans-48"/>
       <use x="160.9375" xlink:href="#DejaVuSans-48"/>
      </g>
     </g>
    </g>
    <g id="xtick_3">
     <g id="line2d_3">
      <path clip-path="url(#p8678d5c4cf)" d="M 229.68553 179.1 
L 320.4 179.1 
" style="fill:none;stroke:#b0b0b0;stroke-linecap:square;stroke-width:0.8;"/>
     </g>
     <g id="text_3">
      <!-- 6:00 -->
      <defs>
       <path d="M 33.015625 40.375 
Q 26.375 40.375 22.484375 35.828125 
Q 18.609375 31.296875 18.609375 23.390625 
Q 18.609375 15.53125 22.484375 10.953125 
Q 26.375 6.390625 33.015625 6.390625 
Q 39.65625 6.390625 43.53125 10.953125 
Q 47.40625 15.53125 47.40625 23.390625 
Q 47.40625 31.296875 43.53125 35.828125 
Q 39.65625 40.375 33.015625 40.375 
z
M 52.59375 71.296875 
L 52.59375 62.3125 
Q 48.875 64.0625 45.09375 64.984375 
Q 41.3125 65.921875 37.59375 65.921875 
Q 27.828125 65.921875 22.671875 59.328125 
Q 17.53125 52.734375 16.796875 39.40625 
Q 19.671875 43.65625 24.015625 45.921875 
Q 28.375 48.1875 33.59375 48.1875 
Q 44.578125 48.1875 50.953125 41.515625 
Q 57.328125 34.859375 57.328125 23.390625 
Q 57.328125 12.15625 50.6875 5.359375 
Q 44.046875 -1.421875 33.015625 -1.421875 
Q 20.359375 -1.421875 13.671875 8.265625 
Q 6.984375 17.96875 6.984375 36.375 
Q 6.984375 53.65625 15.1875 63.9375 
Q 23.390625 74.21875 37.203125 74.21875 
Q 40.921875 74.21875 44.703125 73.484375 
Q 48.484375 72.75 52.59375 71.296875 
z
" id="DejaVuSans-54"/>
      </defs>
      <g transform="translate(323.171875 181.859375)scale(0.1 -0.1)">
       <use xlink:href="#DejaVuSans-54"/>
       <use x="63.623047" xlink:href="#DejaVuSans-58"/>
       <use x="97.314453" xlink:href="#DejaVuSans-48"/>
       <use x="160.9375" xlink:href="#DejaVuSans-48"/>
      </g>
     </g>
    </g>
    <g id="xtick_4">
     <g id="line2d_4">
      <path clip-path="url(#p8678d5c4cf)" d="M 216.450995 211.050995 
L 280.595812 275.195812 
" style="fill:none;stroke:#b0b0b0;stroke-linecap:square;stroke-width:0.8;"/>
     </g>
     <g id="text_4">
      <!-- 9:00 -->
      <defs>
       <path d="M 10.984375 1.515625 
L 10.984375 10.5 
Q 14.703125 8.734375 18.5 7.8125 
Q 22.3125 6.890625 25.984375 6.890625 
Q 35.75 6.890625 40.890625 13.453125 
Q 46.046875 20.015625 46.78125 33.40625 
Q 43.953125 29.203125 39.59375 26.953125 
Q 35.25 24.703125 29.984375 24.703125 
Q 19.046875 24.703125 12.671875 31.3125 
Q 6.296875 37.9375 6.296875 49.421875 
Q 6.296875 60.640625 12.9375 67.421875 
Q 19.578125 74.21875 30.609375 74.21875 
Q 43.265625 74.21875 49.921875 64.515625 
Q 56.59375 54.828125 56.59375 36.375 
Q 56.59375 19.140625 48.40625 8.859375 
Q 40.234375 -1.421875 26.421875 -1.421875 
Q 22.703125 -1.421875 18.890625 -0.6875 
Q 15.09375 0.046875 10.984375 1.515625 
z
M 30.609375 32.421875 
Q 37.25 32.421875 41.125 36.953125 
Q 45.015625 41.5 45.015625 49.421875 
Q 45.015625 57.28125 41.125 61.84375 
Q 37.25 66.40625 30.609375 66.40625 
Q 23.96875 66.40625 20.09375 61.84375 
Q 16.21875 57.28125 16.21875 49.421875 
Q 16.21875 41.5 20.09375 36.953125 
Q 23.96875 32.421875 30.609375 32.421875 
z
" id="DejaVuSans-57"/>
      </defs>
      <g transform="translate(279.267181 287.854681)scale(0.1 -0.1)">
       <use xlink:href="#DejaVuSans-57"/>
       <use x="63.623047" xlink:href="#DejaVuSans-58"/>
       <use x="97.314453" xlink:href="#DejaVuSans-48"/>
       <use x="160.9375" xlink:href="#DejaVuSans-48"/>
      </g>
     </g>
    </g>
    <g id="xtick_5">
     <g id="line2d_5">
      <path clip-path="url(#p8678d5c4cf)" d="M 184.5 224.28553 
L 184.5 315 
" style="fill:none;stroke:#b0b0b0;stroke-linecap:square;stroke-width:0.8;"/>
     </g>
     <g id="text_5">
      <!-- 12:00 -->
      <defs>
       <path d="M 12.40625 8.296875 
L 28.515625 8.296875 
L 28.515625 63.921875 
L 10.984375 60.40625 
L 10.984375 69.390625 
L 28.421875 72.90625 
L 38.28125 72.90625 
L 38.28125 8.296875 
L 54.390625 8.296875 
L 54.390625 0 
L 12.40625 0 
z
" id="DejaVuSans-49"/>
       <path d="M 19.1875 8.296875 
L 53.609375 8.296875 
L 53.609375 0 
L 7.328125 0 
L 7.328125 8.296875 
Q 12.9375 14.109375 22.625 23.890625 
Q 32.328125 33.6875 34.8125 36.53125 
Q 39.546875 41.84375 41.421875 45.53125 
Q 43.3125 49.21875 43.3125 52.78125 
Q 43.3125 58.59375 39.234375 62.25 
Q 35.15625 65.921875 28.609375 65.921875 
Q 23.96875 65.921875 18.8125 64.3125 
Q 13.671875 62.703125 7.8125 59.421875 
L 7.8125 69.390625 
Q 13.765625 71.78125 18.9375 73 
Q 24.125 74.21875 28.421875 74.21875 
Q 39.75 74.21875 46.484375 68.546875 
Q 53.21875 62.890625 53.21875 53.421875 
Q 53.21875 48.921875 51.53125 44.890625 
Q 49.859375 40.875 45.40625 35.40625 
Q 44.1875 33.984375 37.640625 27.21875 
Q 31.109375 20.453125 19.1875 8.296875 
z
" id="DejaVuSans-50"/>
      </defs>
      <g transform="translate(170.090625 331.759375)scale(0.1 -0.1)">
       <use xlink:href="#DejaVuSans-49"/>
       <use x="63.623047" xlink:href="#DejaVuSans-50"/>
       <use x="127.246094" xlink:href="#DejaVuSans-58"/>
       <use x="160.9375" xlink:href="#DejaVuSans-48"/>
       <use x="224.560547" xlink:href="#DejaVuSans-48"/>
      </g>
     </g>
    </g>
    <g id="xtick_6">
     <g id="line2d_6">
      <path clip-path="url(#p8678d5c4cf)" d="M 152.549005 211.050995 
L 88.404188 275.195812 
" style="fill:none;stroke:#b0b0b0;stroke-linecap:square;stroke-width:0.8;"/>
     </g>
     <g id="text_6">
      <!-- 15:00 -->
      <defs>
       <path d="M 10.796875 72.90625 
L 49.515625 72.90625 
L 49.515625 64.59375 
L 19.828125 64.59375 
L 19.828125 46.734375 
Q 21.96875 47.46875 24.109375 47.828125 
Q 26.265625 48.1875 28.421875 48.1875 
Q 40.625 48.1875 47.75 41.5 
Q 54.890625 34.8125 54.890625 23.390625 
Q 54.890625 11.625 47.5625 5.09375 
Q 40.234375 -1.421875 26.90625 -1.421875 
Q 22.3125 -1.421875 17.546875 -0.640625 
Q 12.796875 0.140625 7.71875 1.703125 
L 7.71875 11.625 
Q 12.109375 9.234375 16.796875 8.0625 
Q 21.484375 6.890625 26.703125 6.890625 
Q 35.15625 6.890625 40.078125 11.328125 
Q 45.015625 15.765625 45.015625 23.390625 
Q 45.015625 31 40.078125 35.4375 
Q 35.15625 39.890625 26.703125 39.890625 
Q 22.75 39.890625 18.8125 39.015625 
Q 14.890625 38.140625 10.796875 36.28125 
z
" id="DejaVuSans-53"/>
      </defs>
      <g transform="translate(64.095319 287.854681)scale(0.1 -0.1)">
       <use xlink:href="#DejaVuSans-49"/>
       <use x="63.623047" xlink:href="#DejaVuSans-53"/>
       <use x="127.246094" xlink:href="#DejaVuSans-58"/>
       <use x="160.9375" xlink:href="#DejaVuSans-48"/>
       <use x="224.560547" xlink:href="#DejaVuSans-48"/>
      </g>
     </g>
    </g>
    <g id="xtick_7">
     <g id="line2d_7">
      <path clip-path="url(#p8678d5c4cf)" d="M 139.31447 179.1 
L 48.6 179.1 
" style="fill:none;stroke:#b0b0b0;stroke-linecap:square;stroke-width:0.8;"/>
     </g>
     <g id="text_7">
      <!-- 18:00 -->
      <defs>
       <path d="M 31.78125 34.625 
Q 24.75 34.625 20.71875 30.859375 
Q 16.703125 27.09375 16.703125 20.515625 
Q 16.703125 13.921875 20.71875 10.15625 
Q 24.75 6.390625 31.78125 6.390625 
Q 38.8125 6.390625 42.859375 10.171875 
Q 46.921875 13.96875 46.921875 20.515625 
Q 46.921875 27.09375 42.890625 30.859375 
Q 38.875 34.625 31.78125 34.625 
z
M 21.921875 38.8125 
Q 15.578125 40.375 12.03125 44.71875 
Q 8.5 49.078125 8.5 55.328125 
Q 8.5 64.0625 14.71875 69.140625 
Q 20.953125 74.21875 31.78125 74.21875 
Q 42.671875 74.21875 48.875 69.140625 
Q 55.078125 64.0625 55.078125 55.328125 
Q 55.078125 49.078125 51.53125 44.71875 
Q 48 40.375 41.703125 38.8125 
Q 48.828125 37.15625 52.796875 32.3125 
Q 56.78125 27.484375 56.78125 20.515625 
Q 56.78125 9.90625 50.3125 4.234375 
Q 43.84375 -1.421875 31.78125 -1.421875 
Q 19.734375 -1.421875 13.25 4.234375 
Q 6.78125 9.90625 6.78125 20.515625 
Q 6.78125 27.484375 10.78125 32.3125 
Q 14.796875 37.15625 21.921875 38.8125 
z
M 18.3125 54.390625 
Q 18.3125 48.734375 21.84375 45.5625 
Q 25.390625 42.390625 31.78125 42.390625 
Q 38.140625 42.390625 41.71875 45.5625 
Q 45.3125 48.734375 45.3125 54.390625 
Q 45.3125 60.0625 41.71875 63.234375 
Q 38.140625 66.40625 31.78125 66.40625 
Q 25.390625 66.40625 21.84375 63.234375 
Q 18.3125 60.0625 18.3125 54.390625 
z
" id="DejaVuSans-56"/>
      </defs>
      <g transform="translate(20.190625 181.859375)scale(0.1 -0.1)">
       <use xlink:href="#DejaVuSans-49"/>
       <use x="63.623047" xlink:href="#DejaVuSans-56"/>
       <use x="127.246094" xlink:href="#DejaVuSans-58"/>
       <use x="160.9375" xlink:href="#DejaVuSans-48"/>
       <use x="224.560547" xlink:href="#DejaVuSans-48"/>
      </g>
     </g>
    </g>
    <g id="xtick_8">
     <g id="line2d_8">
      <path clip-path="url(#p8678d5c4cf)" d="M 152.549005 147.149005 
L 88.404188 83.004188 
" style="fill:none;stroke:#b0b0b0;stroke-linecap:square;stroke-width:0.8;"/>
     </g>
     <g id="text_8">
      <!-- 21:00 -->
      <g transform="translate(64.095319 75.864069)scale(0.1 -0.1)">
       <use xlink:href="#DejaVuSans-50"/>
       <use x="63.623047" xlink:href="#DejaVuSans-49"/>
       <use x="127.246094" xlink:href="#DejaVuSans-58"/>
       <use x="160.9375" xlink:href="#DejaVuSans-48"/>
       <use x="224.560547" xlink:href="#DejaVuSans-48"/>
      </g>
     </g>
    </g>
   </g>
   <g id="matplotlib.axis_2">
    <g id="ytick_1">
     <g id="line2d_9">
      <path clip-path="url(#p8678d5c4cf)" d="M 184.5 133.91447 
L 187.651983 134.02454 
L 190.78861 134.354212 
L 193.8946 134.901882 
L 196.95482 135.664881 
L 199.954361 136.639491 
L 202.878611 137.820964 
L 205.713321 139.203545 
L 208.444683 140.780497 
L 211.059388 142.544138 
L 213.544699 144.485876 
L 215.888507 146.59625 
L 218.079393 148.864979 
L 220.106684 151.28101 
L 221.960502 153.832572 
L 223.631817 156.507235 
L 225.112485 159.291967 
L 226.395294 162.173203 
L 227.473993 165.136903 
L 228.343327 168.168631 
L 228.99906 171.253615 
L 229.437999 174.376826 
L 229.658004 177.523048 
L 229.658004 180.676952 
L 229.437999 183.823174 
L 228.99906 186.946385 
L 228.343327 190.031369 
L 227.473993 193.063097 
L 226.395294 196.026797 
L 225.112485 198.908033 
L 223.631817 201.692765 
L 221.960502 204.367428 
L 220.106684 206.91899 
L 218.079393 209.335021 
L 215.888507 211.60375 
L 213.544699 213.714124 
L 211.059388 215.655862 
L 208.444683 217.419503 
L 205.713321 218.996455 
L 202.878611 220.379036 
L 199.954361 221.560509 
L 196.95482 222.535119 
L 193.8946 223.298118 
L 190.78861 223.845788 
L 187.651983 224.17546 
L 184.5 224.28553 
L 181.348017 224.17546 
L 178.21139 223.845788 
L 175.1054 223.298118 
L 172.04518 222.535119 
L 169.045639 221.560509 
L 166.121389 220.379036 
L 163.286679 218.996455 
L 160.555317 217.419503 
L 157.940612 215.655862 
L 155.455301 213.714124 
L 153.111493 211.60375 
L 150.920607 209.335021 
L 148.893316 206.91899 
L 147.039498 204.367428 
L 145.368183 201.692765 
L 143.887515 198.908033 
L 142.604706 196.026797 
L 141.526007 193.063097 
L 140.656673 190.031369 
L 140.00094 186.946385 
L 139.562001 183.823174 
L 139.341996 180.676952 
L 139.341996 177.523048 
L 139.562001 174.376826 
L 140.00094 171.253615 
L 140.656673 168.168631 
L 141.526007 165.136903 
L 142.604706 162.173203 
L 143.887515 159.291967 
L 145.368183 156.507235 
L 147.039498 153.832572 
L 148.893316 151.28101 
L 150.920607 148.864979 
L 153.111493 146.59625 
L 155.455301 144.485876 
L 157.940612 142.544138 
L 160.555317 140.780497 
L 163.286679 139.203545 
L 166.121389 137.820964 
L 169.045639 136.639491 
L 172.04518 135.664881 
L 175.1054 134.901882 
L 178.21139 134.354212 
L 181.348017 134.02454 
L 184.5 133.91447 
L 184.5 133.91447 
" style="fill:none;stroke:#b0b0b0;stroke-linecap:square;stroke-width:0.8;"/>
     </g>
     <g id="text_9">
      <!-- 0 -->
      <g transform="translate(226.245986 159.728559)scale(0.1 -0.1)">
       <use xlink:href="#DejaVuSans-48"/>
      </g>
     </g>
    </g>
    <g id="ytick_2">
     <g id="line2d_10">
      <path clip-path="url(#p8678d5c4cf)" d="M 184.5 115.840258 
L 188.912777 115.994356 
L 193.304054 116.455897 
L 197.65244 117.222635 
L 201.936748 118.290833 
L 206.136106 119.655287 
L 210.230055 121.30935 
L 214.19865 123.244963 
L 218.022556 125.452696 
L 221.683143 127.921794 
L 225.162578 130.640226 
L 228.443909 133.59475 
L 231.51115 136.77097 
L 234.349357 140.153414 
L 236.944703 143.725601 
L 239.284544 147.470129 
L 241.357479 151.368754 
L 243.153411 155.402484 
L 244.66359 159.551665 
L 245.880657 163.796083 
L 246.798684 168.115061 
L 247.413199 172.487556 
L 247.721206 176.892267 
L 247.721206 181.307733 
L 247.413199 185.712444 
L 246.798684 190.084939 
L 245.880657 194.403917 
L 244.66359 198.648335 
L 243.153411 202.797516 
L 241.357479 206.831246 
L 239.284544 210.729871 
L 236.944703 214.474399 
L 234.349357 218.046586 
L 231.51115 221.42903 
L 228.443909 224.60525 
L 225.162578 227.559774 
L 221.683143 230.278206 
L 218.022556 232.747304 
L 214.19865 234.955037 
L 210.230055 236.89065 
L 206.136106 238.544713 
L 201.936748 239.909167 
L 197.65244 240.977365 
L 193.304054 241.744103 
L 188.912777 242.205644 
L 184.5 242.359742 
L 180.087223 242.205644 
L 175.695946 241.744103 
L 171.34756 240.977365 
L 167.063252 239.909167 
L 162.863894 238.544713 
L 158.769945 236.89065 
L 154.80135 234.955037 
L 150.977444 232.747304 
L 147.316857 230.278206 
L 143.837422 227.559774 
L 140.556091 224.60525 
L 137.48885 221.42903 
L 134.650643 218.046586 
L 132.055297 214.474399 
L 129.715456 210.729871 
L 127.642521 206.831246 
L 125.846589 202.797516 
L 124.33641 198.648335 
L 123.119343 194.403917 
L 122.201316 190.084939 
L 121.586801 185.712444 
L 121.278794 181.307733 
L 121.278794 176.892267 
L 121.586801 172.487556 
L 122.201316 168.115061 
L 123.119343 163.796083 
L 124.33641 159.551665 
L 125.846589 155.402484 
L 127.642521 151.368754 
L 129.715456 147.470129 
L 132.055297 143.725601 
L 134.650643 140.153414 
L 137.48885 136.77097 
L 140.556091 133.59475 
L 143.837422 130.640226 
L 147.316857 127.921794 
L 150.977444 125.452696 
L 154.80135 123.244963 
L 158.769945 121.30935 
L 162.863894 119.655287 
L 167.063252 118.290833 
L 171.34756 117.222635 
L 175.695946 116.455897 
L 180.087223 115.994356 
L 184.5 115.840258 
L 184.5 115.840258 
" style="fill:none;stroke:#b0b0b0;stroke-linecap:square;stroke-width:0.8;"/>
     </g>
     <g id="text_10">
      <!-- 10 -->
      <g transform="translate(242.944381 152.811857)scale(0.1 -0.1)">
       <use xlink:href="#DejaVuSans-49"/>
       <use x="63.623047" xlink:href="#DejaVuSans-48"/>
      </g>
     </g>
    </g>
    <g id="ytick_3">
     <g id="line2d_11">
      <path clip-path="url(#p8678d5c4cf)" d="M 184.5 97.766046 
L 190.17357 97.964171 
L 195.819499 98.557582 
L 201.41028 99.543388 
L 206.918676 100.916785 
L 212.317851 102.671084 
L 217.581499 104.797736 
L 222.683978 107.286381 
L 227.600429 110.124895 
L 232.306899 113.299449 
L 236.780458 116.794577 
L 240.999312 120.59325 
L 244.942907 124.676962 
L 248.59203 129.025818 
L 251.928904 133.61863 
L 254.93727 138.433023 
L 257.602474 143.445541 
L 259.911529 148.631765 
L 261.853187 153.966426 
L 263.417988 159.423536 
L 264.598308 164.976507 
L 265.388398 170.598287 
L 265.784408 176.261486 
L 265.784408 181.938514 
L 265.388398 187.601713 
L 264.598308 193.223493 
L 263.417988 198.776464 
L 261.853187 204.233574 
L 259.911529 209.568235 
L 257.602474 214.754459 
L 254.93727 219.766977 
L 251.928904 224.58137 
L 248.59203 229.174182 
L 244.942907 233.523038 
L 240.999312 237.60675 
L 236.780458 241.405423 
L 232.306899 244.900551 
L 227.600429 248.075105 
L 222.683978 250.913619 
L 217.581499 253.402264 
L 212.317851 255.528916 
L 206.918676 257.283215 
L 201.41028 258.656612 
L 195.819499 259.642418 
L 190.17357 260.235829 
L 184.5 260.433954 
L 178.82643 260.235829 
L 173.180501 259.642418 
L 167.58972 258.656612 
L 162.081324 257.283215 
L 156.682149 255.528916 
L 151.418501 253.402264 
L 146.316022 250.913619 
L 141.399571 248.075105 
L 136.693101 244.900551 
L 132.219542 241.405423 
L 128.000688 237.60675 
L 124.057093 233.523038 
L 120.40797 229.174182 
L 117.071096 224.58137 
L 114.06273 219.766977 
L 111.397526 214.754459 
L 109.088471 209.568235 
L 107.146813 204.233574 
L 105.582012 198.776464 
L 104.401692 193.223493 
L 103.611602 187.601713 
L 103.215592 181.938514 
L 103.215592 176.261486 
L 103.611602 170.598287 
L 104.401692 164.976507 
L 105.582012 159.423536 
L 107.146813 153.966426 
L 109.088471 148.631765 
L 111.397526 143.445541 
L 114.06273 138.433023 
L 117.071096 133.61863 
L 120.40797 129.025818 
L 124.057093 124.676962 
L 128.000688 120.59325 
L 132.219542 116.794577 
L 136.693101 113.299449 
L 141.399571 110.124895 
L 146.316022 107.286381 
L 151.418501 104.797736 
L 156.682149 102.671084 
L 162.081324 100.916785 
L 167.58972 99.543388 
L 173.180501 98.557582 
L 178.82643 97.964171 
L 184.5 97.766046 
L 184.5 97.766046 
" style="fill:none;stroke:#b0b0b0;stroke-linecap:square;stroke-width:0.8;"/>
     </g>
     <g id="text_11">
      <!-- 20 -->
      <g transform="translate(259.642775 145.895156)scale(0.1 -0.1)">
       <use xlink:href="#DejaVuSans-50"/>
       <use x="63.623047" xlink:href="#DejaVuSans-48"/>
      </g>
     </g>
    </g>
    <g id="ytick_4">
     <g id="line2d_12">
      <path clip-path="url(#p8678d5c4cf)" d="M 184.5 79.691834 
L 187.969295 79.752391 
L 191.434363 79.933987 
L 194.890983 80.236402 
L 198.334943 80.659267 
L 201.762047 81.202067 
L 205.16812 81.864141 
L 208.549012 82.644681 
L 211.900604 83.542738 
L 215.218813 84.557216 
L 218.499595 85.68688 
L 221.738954 86.930353 
L 224.932944 88.286122 
L 228.077672 89.752532 
L 231.169307 91.327799 
L 234.204083 93.010003 
L 237.178302 94.797094 
L 240.088341 96.686895 
L 242.930654 98.677104 
L 245.701778 100.765296 
L 248.398337 102.948927 
L 251.017046 105.225336 
L 253.554715 107.59175 
L 256.00825 110.045285 
L 258.374664 112.582954 
L 260.651073 115.201663 
L 262.834704 117.898222 
L 264.922896 120.669346 
L 266.913105 123.511659 
L 268.802906 126.421698 
L 270.589997 129.395917 
L 272.272201 132.430693 
L 273.847468 135.522328 
L 275.313878 138.667056 
L 276.669647 141.861046 
L 277.91312 145.100405 
L 279.042784 148.381187 
L 280.057262 151.699396 
L 280.955319 155.050988 
L 281.735859 158.43188 
L 282.397933 161.837953 
L 282.940733 165.265057 
L 283.363598 168.709017 
L 283.666013 172.165637 
L 283.847609 175.630705 
L 283.908166 179.1 
L 283.847609 182.569295 
L 283.666013 186.034363 
L 283.363598 189.490983 
L 282.940733 192.934943 
L 282.397933 196.362047 
L 281.735859 199.76812 
L 280.955319 203.149012 
L 280.057262 206.500604 
L 279.042784 209.818813 
L 277.91312 213.099595 
L 276.669647 216.338954 
L 275.313878 219.532944 
L 273.847468 222.677672 
L 272.272201 225.769307 
L 270.589997 228.804083 
L 268.802906 231.778302 
L 266.913105 234.688341 
L 264.922896 237.530654 
L 262.834704 240.301778 
L 260.651073 242.998337 
L 258.374664 245.617046 
L 256.00825 248.154715 
L 253.554715 250.60825 
L 251.017046 252.974664 
L 248.398337 255.251073 
L 245.701778 257.434704 
L 242.930654 259.522896 
L 240.088341 261.513105 
L 237.178302 263.402906 
L 234.204083 265.189997 
L 231.169307 266.872201 
L 228.077672 268.447468 
L 224.932944 269.913878 
L 221.738954 271.269647 
L 218.499595 272.51312 
L 215.218813 273.642784 
L 211.900604 274.657262 
L 208.549012 275.555319 
L 205.16812 276.335859 
L 201.762047 276.997933 
L 198.334943 277.540733 
L 194.890983 277.963598 
L 191.434363 278.266013 
L 187.969295 278.447609 
L 184.5 278.508166 
L 181.030705 278.447609 
L 177.565637 278.266013 
L 174.109017 277.963598 
L 170.665057 277.540733 
L 167.237953 276.997933 
L 163.83188 276.335859 
L 160.450988 275.555319 
L 157.099396 274.657262 
L 153.781187 273.642784 
L 150.500405 272.51312 
L 147.261046 271.269647 
L 144.067056 269.913878 
L 140.922328 268.447468 
L 137.830693 266.872201 
L 134.795917 265.189997 
L 131.821698 263.402906 
L 128.911659 261.513105 
L 126.069346 259.522896 
L 123.298222 257.434704 
L 120.601663 255.251073 
L 117.982954 252.974664 
L 115.445285 250.60825 
L 112.99175 248.154715 
L 110.625336 245.617046 
L 108.348927 242.998337 
L 106.165296 240.301778 
L 104.077104 237.530654 
L 102.086895 234.688341 
L 100.197094 231.778302 
L 98.410003 228.804083 
L 96.727799 225.769307 
L 95.152532 222.677672 
L 93.686122 219.532944 
L 92.330353 216.338954 
L 91.08688 213.099595 
L 89.957216 209.818813 
L 88.942738 206.500604 
L 88.044681 203.149012 
L 87.264141 199.76812 
L 86.602067 196.362047 
L 86.059267 192.934943 
L 85.636402 189.490983 
L 85.333987 186.034363 
L 85.152391 182.569295 
L 85.091834 179.1 
L 85.152391 175.630705 
L 85.333987 172.165637 
L 85.636402 168.709017 
L 86.059267 165.265057 
L 86.602067 161.837953 
L 87.264141 158.43188 
L 88.044681 155.050988 
L 88.942738 151.699396 
L 89.957216 148.381187 
L 91.08688 145.100405 
L 92.330353 141.861046 
L 93.686122 138.667056 
L 95.152532 135.522328 
L 96.727799 132.430693 
L 98.410003 129.395917 
L 100.197094 126.421698 
L 102.086895 123.511659 
L 104.077104 120.669346 
L 106.165296 117.898222 
L 108.348927 115.201663 
L 110.625336 112.582954 
L 112.99175 110.045285 
L 115.445285 107.59175 
L 117.982954 105.225336 
L 120.601663 102.948927 
L 123.298222 100.765296 
L 126.069346 98.677104 
L 128.911659 96.686895 
L 131.821698 94.797094 
L 134.795917 93.010003 
L 137.830693 91.327799 
L 140.922328 89.752532 
L 144.067056 88.286122 
L 147.261046 86.930353 
L 150.500405 85.68688 
L 153.781187 84.557216 
L 157.099396 83.542738 
L 160.450988 82.644681 
L 163.83188 81.864141 
L 167.237953 81.202067 
L 170.665057 80.659267 
L 174.109017 80.236402 
L 177.565637 79.933987 
L 181.030705 79.752391 
L 184.5 79.691834 
L 184.5 79.691834 
" style="fill:none;stroke:#b0b0b0;stroke-linecap:square;stroke-width:0.8;"/>
     </g>
     <g id="text_12">
      <!-- 30 -->
      <g transform="translate(276.34117 138.978454)scale(0.1 -0.1)">
       <use xlink:href="#DejaVuSans-51"/>
       <use x="63.623047" xlink:href="#DejaVuSans-48"/>
      </g>
     </g>
    </g>
    <g id="ytick_5">
     <g id="line2d_13">
      <path clip-path="url(#p8678d5c4cf)" d="M 184.5 61.617622 
L 188.600076 61.689189 
L 192.695156 61.903803 
L 196.780252 62.261203 
L 200.850387 62.760952 
L 204.900601 63.402443 
L 208.92596 64.184894 
L 212.92156 65.107351 
L 216.882532 66.16869 
L 220.804051 67.367619 
L 224.68134 68.702676 
L 228.509673 70.172236 
L 232.284388 71.774507 
L 236.000885 73.507538 
L 239.654636 75.369217 
L 243.241189 77.357276 
L 246.756175 79.469293 
L 250.195312 81.702695 
L 253.554409 84.05476 
L 256.829374 86.522623 
L 260.016217 89.103277 
L 263.111055 91.793579 
L 266.110117 94.59025 
L 269.00975 97.489883 
L 271.806421 100.488945 
L 274.496723 103.583783 
L 277.077377 106.770626 
L 279.54524 110.045591 
L 281.897305 113.404688 
L 284.130707 116.843825 
L 286.242724 120.358811 
L 288.230783 123.945364 
L 290.092462 127.599115 
L 291.825493 131.315612 
L 293.427764 135.090327 
L 294.897324 138.91866 
L 296.232381 142.795949 
L 297.43131 146.717468 
L 298.492649 150.67844 
L 299.415106 154.67404 
L 300.197557 158.699399 
L 300.839048 162.749613 
L 301.338797 166.819748 
L 301.696197 170.904844 
L 301.910811 174.999924 
L 301.982378 179.1 
L 301.910811 183.200076 
L 301.696197 187.295156 
L 301.338797 191.380252 
L 300.839048 195.450387 
L 300.197557 199.500601 
L 299.415106 203.52596 
L 298.492649 207.52156 
L 297.43131 211.482532 
L 296.232381 215.404051 
L 294.897324 219.28134 
L 293.427764 223.109673 
L 291.825493 226.884388 
L 290.092462 230.600885 
L 288.230783 234.254636 
L 286.242724 237.841189 
L 284.130707 241.356175 
L 281.897305 244.795312 
L 279.54524 248.154409 
L 277.077377 251.429374 
L 274.496723 254.616217 
L 271.806421 257.711055 
L 269.00975 260.710117 
L 266.110117 263.60975 
L 263.111055 266.406421 
L 260.016217 269.096723 
L 256.829374 271.677377 
L 253.554409 274.14524 
L 250.195312 276.497305 
L 246.756175 278.730707 
L 243.241189 280.842724 
L 239.654636 282.830783 
L 236.000885 284.692462 
L 232.284388 286.425493 
L 228.509673 288.027764 
L 224.68134 289.497324 
L 220.804051 290.832381 
L 216.882532 292.03131 
L 212.92156 293.092649 
L 208.92596 294.015106 
L 204.900601 294.797557 
L 200.850387 295.439048 
L 196.780252 295.938797 
L 192.695156 296.296197 
L 188.600076 296.510811 
L 184.5 296.582378 
L 180.399924 296.510811 
L 176.304844 296.296197 
L 172.219748 295.938797 
L 168.149613 295.439048 
L 164.099399 294.797557 
L 160.07404 294.015106 
L 156.07844 293.092649 
L 152.117468 292.03131 
L 148.195949 290.832381 
L 144.31866 289.497324 
L 140.490327 288.027764 
L 136.715612 286.425493 
L 132.999115 284.692462 
L 129.345364 282.830783 
L 125.758811 280.842724 
L 122.243825 278.730707 
L 118.804688 276.497305 
L 115.445591 274.14524 
L 112.170626 271.677377 
L 108.983783 269.096723 
L 105.888945 266.406421 
L 102.889883 263.60975 
L 99.99025 260.710117 
L 97.193579 257.711055 
L 94.503277 254.616217 
L 91.922623 251.429374 
L 89.45476 248.154409 
L 87.102695 244.795312 
L 84.869293 241.356175 
L 82.757276 237.841189 
L 80.769217 234.254636 
L 78.907538 230.600885 
L 77.174507 226.884388 
L 75.572236 223.109673 
L 74.102676 219.28134 
L 72.767619 215.404051 
L 71.56869 211.482532 
L 70.507351 207.52156 
L 69.584894 203.52596 
L 68.802443 199.500601 
L 68.160952 195.450387 
L 67.661203 191.380252 
L 67.303803 187.295156 
L 67.089189 183.200076 
L 67.017622 179.1 
L 67.089189 174.999924 
L 67.303803 170.904844 
L 67.661203 166.819748 
L 68.160952 162.749613 
L 68.802443 158.699399 
L 69.584894 154.67404 
L 70.507351 150.67844 
L 71.56869 146.717468 
L 72.767619 142.795949 
L 74.102676 138.91866 
L 75.572236 135.090327 
L 77.174507 131.315612 
L 78.907538 127.599115 
L 80.769217 123.945364 
L 82.757276 120.358811 
L 84.869293 116.843825 
L 87.102695 113.404688 
L 89.45476 110.045591 
L 91.922623 106.770626 
L 94.503277 103.583783 
L 97.193579 100.488945 
L 99.99025 97.489883 
L 102.889883 94.59025 
L 105.888945 91.793579 
L 108.983783 89.103277 
L 112.170626 86.522623 
L 115.445591 84.05476 
L 118.804688 81.702695 
L 122.243825 79.469293 
L 125.758811 77.357276 
L 129.345364 75.369217 
L 132.999115 73.507538 
L 136.715612 71.774507 
L 140.490327 70.172236 
L 144.31866 68.702676 
L 148.195949 67.367619 
L 152.117468 66.16869 
L 156.07844 65.107351 
L 160.07404 64.184894 
L 164.099399 63.402443 
L 168.149613 62.760952 
L 172.219748 62.261203 
L 176.304844 61.903803 
L 180.399924 61.689189 
L 184.5 61.617622 
L 184.5 61.617622 
" style="fill:none;stroke:#b0b0b0;stroke-linecap:square;stroke-width:0.8;"/>
     </g>
     <g id="text_13">
      <!-- 40 -->
      <defs>
       <path d="M 37.796875 64.3125 
L 12.890625 25.390625 
L 37.796875 25.390625 
z
M 35.203125 72.90625 
L 47.609375 72.90625 
L 47.609375 25.390625 
L 58.015625 25.390625 
L 58.015625 17.1875 
L 47.609375 17.1875 
L 47.609375 0 
L 37.796875 0 
L 37.796875 17.1875 
L 4.890625 17.1875 
L 4.890625 26.703125 
z
" id="DejaVuSans-52"/>
      </defs>
      <g transform="translate(293.039564 132.061753)scale(0.1 -0.1)">
       <use xlink:href="#DejaVuSans-52"/>
       <use x="63.623047" xlink:href="#DejaVuSans-48"/>
      </g>
     </g>
    </g>
    <g id="ytick_6">
     <g id="line2d_14">
      <path clip-path="url(#p8678d5c4cf)" d="M 184.5 43.54341 
L 189.230857 43.625987 
L 193.95595 43.873619 
L 198.669522 44.286003 
L 203.365831 44.862637 
L 208.039155 45.602819 
L 212.6838 46.505647 
L 217.294107 47.57002 
L 221.86446 48.794642 
L 226.38929 50.178022 
L 230.863084 51.718473 
L 235.280392 53.414118 
L 239.635832 55.262893 
L 243.924098 57.262544 
L 248.139964 59.410635 
L 252.278295 61.704549 
L 256.334048 64.141492 
L 260.302283 66.718494 
L 264.178164 69.432415 
L 267.95697 72.279949 
L 271.634096 75.257628 
L 275.205063 78.361822 
L 278.66552 81.58875 
L 282.01125 84.93448 
L 285.238178 88.394937 
L 288.342372 91.965904 
L 291.320051 95.64303 
L 294.167585 99.421836 
L 296.881506 103.297717 
L 299.458508 107.265952 
L 301.895451 111.321705 
L 304.189365 115.460036 
L 306.337456 119.675902 
L 308.337107 123.964168 
L 310.185882 128.319608 
L 311.881527 132.736916 
L 313.421978 137.21071 
L 314.805358 141.73554 
L 316.02998 146.305893 
L 317.094353 150.9162 
L 317.997181 155.560845 
L 318.737363 160.234169 
L 319.313997 164.930478 
L 319.726381 169.64405 
L 319.974013 174.369143 
L 320.05659 179.1 
L 319.974013 183.830857 
L 319.726381 188.55595 
L 319.313997 193.269522 
L 318.737363 197.965831 
L 317.997181 202.639155 
L 317.094353 207.2838 
L 316.02998 211.894107 
L 314.805358 216.46446 
L 313.421978 220.98929 
L 311.881527 225.463084 
L 310.185882 229.880392 
L 308.337107 234.235832 
L 306.337456 238.524098 
L 304.189365 242.739964 
L 301.895451 246.878295 
L 299.458508 250.934048 
L 296.881506 254.902283 
L 294.167585 258.778164 
L 291.320051 262.55697 
L 288.342372 266.234096 
L 285.238178 269.805063 
L 282.01125 273.26552 
L 278.66552 276.61125 
L 275.205063 279.838178 
L 271.634096 282.942372 
L 267.95697 285.920051 
L 264.178164 288.767585 
L 260.302283 291.481506 
L 256.334048 294.058508 
L 252.278295 296.495451 
L 248.139964 298.789365 
L 243.924098 300.937456 
L 239.635832 302.937107 
L 235.280392 304.785882 
L 230.863084 306.481527 
L 226.38929 308.021978 
L 221.86446 309.405358 
L 217.294107 310.62998 
L 212.6838 311.694353 
L 208.039155 312.597181 
L 203.365831 313.337363 
L 198.669522 313.913997 
L 193.95595 314.326381 
L 189.230857 314.574013 
L 184.5 314.65659 
L 179.769143 314.574013 
L 175.04405 314.326381 
L 170.330478 313.913997 
L 165.634169 313.337363 
L 160.960845 312.597181 
L 156.3162 311.694353 
L 151.705893 310.62998 
L 147.13554 309.405358 
L 142.61071 308.021978 
L 138.136916 306.481527 
L 133.719608 304.785882 
L 129.364168 302.937107 
L 125.075902 300.937456 
L 120.860036 298.789365 
L 116.721705 296.495451 
L 112.665952 294.058508 
L 108.697717 291.481506 
L 104.821836 288.767585 
L 101.04303 285.920051 
L 97.365904 282.942372 
L 93.794937 279.838178 
L 90.33448 276.61125 
L 86.98875 273.26552 
L 83.761822 269.805063 
L 80.657628 266.234096 
L 77.679949 262.55697 
L 74.832415 258.778164 
L 72.118494 254.902283 
L 69.541492 250.934048 
L 67.104549 246.878295 
L 64.810635 242.739964 
L 62.662544 238.524098 
L 60.662893 234.235832 
L 58.814118 229.880392 
L 57.118473 225.463084 
L 55.578022 220.98929 
L 54.194642 216.46446 
L 52.97002 211.894107 
L 51.905647 207.2838 
L 51.002819 202.639155 
L 50.262637 197.965831 
L 49.686003 193.269522 
L 49.273619 188.55595 
L 49.025987 183.830857 
L 48.94341 179.1 
L 49.025987 174.369143 
L 49.273619 169.64405 
L 49.686003 164.930478 
L 50.262637 160.234169 
L 51.002819 155.560845 
L 51.905647 150.9162 
L 52.97002 146.305893 
L 54.194642 141.73554 
L 55.578022 137.21071 
L 57.118473 132.736916 
L 58.814118 128.319608 
L 60.662893 123.964168 
L 62.662544 119.675902 
L 64.810635 115.460036 
L 67.104549 111.321705 
L 69.541492 107.265952 
L 72.118494 103.297717 
L 74.832415 99.421836 
L 77.679949 95.64303 
L 80.657628 91.965904 
L 83.761822 88.394937 
L 86.98875 84.93448 
L 90.33448 81.58875 
L 93.794937 78.361822 
L 97.365904 75.257628 
L 101.04303 72.279949 
L 104.821836 69.432415 
L 108.697717 66.718494 
L 112.665952 64.141492 
L 116.721705 61.704549 
L 120.860036 59.410635 
L 125.075902 57.262544 
L 129.364168 55.262893 
L 133.719608 53.414118 
L 138.136916 51.718473 
L 142.61071 50.178022 
L 147.13554 48.794642 
L 151.705893 47.57002 
L 156.3162 46.505647 
L 160.960845 45.602819 
L 165.634169 44.862637 
L 170.330478 44.286003 
L 175.04405 43.873619 
L 179.769143 43.625987 
L 184.5 43.54341 
L 184.5 43.54341 
" style="fill:none;stroke:#b0b0b0;stroke-linecap:square;stroke-width:0.8;"/>
     </g>
     <g id="text_14">
      <!-- 50 -->
      <g transform="translate(309.737959 125.145051)scale(0.1 -0.1)">
       <use xlink:href="#DejaVuSans-53"/>
       <use x="63.623047" xlink:href="#DejaVuSans-48"/>
      </g>
     </g>
    </g>
   </g>
   <g id="patch_135">
    <path d="M 184.5 43.2 
C 166.653776 43.2 148.981083 46.715317 132.493322 53.544772 
C 116.00556 60.374226 101.023375 70.385002 88.404188 83.004188 
C 75.785002 95.623375 65.774226 110.60556 58.944772 127.093322 
C 52.115317 143.581083 48.6 161.253776 48.6 179.1 
C 48.6 196.946224 52.115317 214.618917 58.944772 231.106678 
C 65.774226 247.59444 75.785002 262.576625 88.404188 275.195812 
C 101.023375 287.814998 116.00556 297.825774 132.493322 304.655228 
C 148.981083 311.484683 166.653776 315 184.5 315 
C 202.346224 315 220.018917 311.484683 236.506678 304.655228 
C 252.99444 297.825774 267.976625 287.814998 280.595812 275.195812 
C 293.214998 262.576625 303.225774 247.59444 310.055228 231.106678 
C 316.884683 214.618917 320.4 196.946224 320.4 179.1 
C 320.4 161.253776 316.884683 143.581083 310.055228 127.093322 
C 303.225774 110.60556 293.214998 95.623375 280.595812 83.004188 
C 267.976625 70.385002 252.99444 60.374226 236.506678 53.544772 
C 220.018917 46.715317 202.346224 43.2 184.5 43.2 
" style="fill:none;stroke:#000000;stroke-linecap:square;stroke-linejoin:miter;stroke-width:0.8;"/>
   </g>
   <g id="patch_136">
    <path d="M 184.5 133.91447 
C 178.566291 133.91447 172.690279 135.083281 167.208246 137.354014 
C 161.726214 139.624746 156.744772 142.953239 152.549005 147.149005 
C 148.353239 151.344772 145.024746 156.326214 142.754014 161.808246 
C 140.483281 167.290279 139.31447 173.166291 139.31447 179.1 
C 139.31447 185.033709 140.483281 190.909721 142.754014 196.391754 
C 145.024746 201.873786 148.353239 206.855228 152.549005 211.050995 
C 156.744772 215.246761 161.726214 218.575254 167.208246 220.845986 
C 172.690279 223.116719 178.566291 224.28553 184.5 224.28553 
C 190.433709 224.28553 196.309721 223.116719 201.791754 220.845986 
C 207.273786 218.575254 212.255228 215.246761 216.450995 211.050995 
C 220.646761 206.855228 223.975254 201.873786 226.245986 196.391754 
C 228.516719 190.909721 229.68553 185.033709 229.68553 179.1 
C 229.68553 173.166291 228.516719 167.290279 226.245986 161.808246 
C 223.975254 156.326214 220.646761 151.344772 216.450995 147.149005 
C 212.255228 142.953239 207.273786 139.624746 201.791754 137.354014 
C 196.309721 135.083281 190.433709 133.91447 184.5 133.91447 
" style="fill:none;stroke:#000000;stroke-linecap:square;stroke-linejoin:miter;stroke-width:0.8;"/>
   </g>
   <g id="text_15">
    <!-- Anzahl Nachrichten nach Minute -->
    <defs>
     <path d="M 34.1875 63.1875 
L 20.796875 26.90625 
L 47.609375 26.90625 
z
M 28.609375 72.90625 
L 39.796875 72.90625 
L 67.578125 0 
L 57.328125 0 
L 50.6875 18.703125 
L 17.828125 18.703125 
L 11.1875 0 
L 0.78125 0 
z
" id="DejaVuSans-65"/>
     <path d="M 54.890625 33.015625 
L 54.890625 0 
L 45.90625 0 
L 45.90625 32.71875 
Q 45.90625 40.484375 42.875 44.328125 
Q 39.84375 48.1875 33.796875 48.1875 
Q 26.515625 48.1875 22.3125 43.546875 
Q 18.109375 38.921875 18.109375 30.90625 
L 18.109375 0 
L 9.078125 0 
L 9.078125 54.6875 
L 18.109375 54.6875 
L 18.109375 46.1875 
Q 21.34375 51.125 25.703125 53.5625 
Q 30.078125 56 35.796875 56 
Q 45.21875 56 50.046875 50.171875 
Q 54.890625 44.34375 54.890625 33.015625 
z
" id="DejaVuSans-110"/>
     <path d="M 5.515625 54.6875 
L 48.1875 54.6875 
L 48.1875 46.484375 
L 14.40625 7.171875 
L 48.1875 7.171875 
L 48.1875 0 
L 4.296875 0 
L 4.296875 8.203125 
L 38.09375 47.515625 
L 5.515625 47.515625 
z
" id="DejaVuSans-122"/>
     <path d="M 34.28125 27.484375 
Q 23.390625 27.484375 19.1875 25 
Q 14.984375 22.515625 14.984375 16.5 
Q 14.984375 11.71875 18.140625 8.90625 
Q 21.296875 6.109375 26.703125 6.109375 
Q 34.1875 6.109375 38.703125 11.40625 
Q 43.21875 16.703125 43.21875 25.484375 
L 43.21875 27.484375 
z
M 52.203125 31.203125 
L 52.203125 0 
L 43.21875 0 
L 43.21875 8.296875 
Q 40.140625 3.328125 35.546875 0.953125 
Q 30.953125 -1.421875 24.3125 -1.421875 
Q 15.921875 -1.421875 10.953125 3.296875 
Q 6 8.015625 6 15.921875 
Q 6 25.140625 12.171875 29.828125 
Q 18.359375 34.515625 30.609375 34.515625 
L 43.21875 34.515625 
L 43.21875 35.40625 
Q 43.21875 41.609375 39.140625 45 
Q 35.0625 48.390625 27.6875 48.390625 
Q 23 48.390625 18.546875 47.265625 
Q 14.109375 46.140625 10.015625 43.890625 
L 10.015625 52.203125 
Q 14.9375 54.109375 19.578125 55.046875 
Q 24.21875 56 28.609375 56 
Q 40.484375 56 46.34375 49.84375 
Q 52.203125 43.703125 52.203125 31.203125 
z
" id="DejaVuSans-97"/>
     <path d="M 54.890625 33.015625 
L 54.890625 0 
L 45.90625 0 
L 45.90625 32.71875 
Q 45.90625 40.484375 42.875 44.328125 
Q 39.84375 48.1875 33.796875 48.1875 
Q 26.515625 48.1875 22.3125 43.546875 
Q 18.109375 38.921875 18.109375 30.90625 
L 18.109375 0 
L 9.078125 0 
L 9.078125 75.984375 
L 18.109375 75.984375 
L 18.109375 46.1875 
Q 21.34375 51.125 25.703125 53.5625 
Q 30.078125 56 35.796875 56 
Q 45.21875 56 50.046875 50.171875 
Q 54.890625 44.34375 54.890625 33.015625 
z
" id="DejaVuSans-104"/>
     <path d="M 9.421875 75.984375 
L 18.40625 75.984375 
L 18.40625 0 
L 9.421875 0 
z
" id="DejaVuSans-108"/>
     <path id="DejaVuSans-32"/>
     <path d="M 9.8125 72.90625 
L 23.09375 72.90625 
L 55.421875 11.921875 
L 55.421875 72.90625 
L 64.984375 72.90625 
L 64.984375 0 
L 51.703125 0 
L 19.390625 60.984375 
L 19.390625 0 
L 9.8125 0 
z
" id="DejaVuSans-78"/>
     <path d="M 48.78125 52.59375 
L 48.78125 44.1875 
Q 44.96875 46.296875 41.140625 47.34375 
Q 37.3125 48.390625 33.40625 48.390625 
Q 24.65625 48.390625 19.8125 42.84375 
Q 14.984375 37.3125 14.984375 27.296875 
Q 14.984375 17.28125 19.8125 11.734375 
Q 24.65625 6.203125 33.40625 6.203125 
Q 37.3125 6.203125 41.140625 7.25 
Q 44.96875 8.296875 48.78125 10.40625 
L 48.78125 2.09375 
Q 45.015625 0.34375 40.984375 -0.53125 
Q 36.96875 -1.421875 32.421875 -1.421875 
Q 20.0625 -1.421875 12.78125 6.34375 
Q 5.515625 14.109375 5.515625 27.296875 
Q 5.515625 40.671875 12.859375 48.328125 
Q 20.21875 56 33.015625 56 
Q 37.15625 56 41.109375 55.140625 
Q 45.0625 54.296875 48.78125 52.59375 
z
" id="DejaVuSans-99"/>
     <path d="M 41.109375 46.296875 
Q 39.59375 47.171875 37.8125 47.578125 
Q 36.03125 48 33.890625 48 
Q 26.265625 48 22.1875 43.046875 
Q 18.109375 38.09375 18.109375 28.8125 
L 18.109375 0 
L 9.078125 0 
L 9.078125 54.6875 
L 18.109375 54.6875 
L 18.109375 46.1875 
Q 20.953125 51.171875 25.484375 53.578125 
Q 30.03125 56 36.53125 56 
Q 37.453125 56 38.578125 55.875 
Q 39.703125 55.765625 41.0625 55.515625 
z
" id="DejaVuSans-114"/>
     <path d="M 9.421875 54.6875 
L 18.40625 54.6875 
L 18.40625 0 
L 9.421875 0 
z
M 9.421875 75.984375 
L 18.40625 75.984375 
L 18.40625 64.59375 
L 9.421875 64.59375 
z
" id="DejaVuSans-105"/>
     <path d="M 18.3125 70.21875 
L 18.3125 54.6875 
L 36.8125 54.6875 
L 36.8125 47.703125 
L 18.3125 47.703125 
L 18.3125 18.015625 
Q 18.3125 11.328125 20.140625 9.421875 
Q 21.96875 7.515625 27.59375 7.515625 
L 36.8125 7.515625 
L 36.8125 0 
L 27.59375 0 
Q 17.1875 0 13.234375 3.875 
Q 9.28125 7.765625 9.28125 18.015625 
L 9.28125 47.703125 
L 2.6875 47.703125 
L 2.6875 54.6875 
L 9.28125 54.6875 
L 9.28125 70.21875 
z
" id="DejaVuSans-116"/>
     <path d="M 56.203125 29.59375 
L 56.203125 25.203125 
L 14.890625 25.203125 
Q 15.484375 15.921875 20.484375 11.0625 
Q 25.484375 6.203125 34.421875 6.203125 
Q 39.59375 6.203125 44.453125 7.46875 
Q 49.3125 8.734375 54.109375 11.28125 
L 54.109375 2.78125 
Q 49.265625 0.734375 44.1875 -0.34375 
Q 39.109375 -1.421875 33.890625 -1.421875 
Q 20.796875 -1.421875 13.15625 6.1875 
Q 5.515625 13.8125 5.515625 26.8125 
Q 5.515625 40.234375 12.765625 48.109375 
Q 20.015625 56 32.328125 56 
Q 43.359375 56 49.78125 48.890625 
Q 56.203125 41.796875 56.203125 29.59375 
z
M 47.21875 32.234375 
Q 47.125 39.59375 43.09375 43.984375 
Q 39.0625 48.390625 32.421875 48.390625 
Q 24.90625 48.390625 20.390625 44.140625 
Q 15.875 39.890625 15.1875 32.171875 
z
" id="DejaVuSans-101"/>
     <path d="M 9.8125 72.90625 
L 24.515625 72.90625 
L 43.109375 23.296875 
L 61.8125 72.90625 
L 76.515625 72.90625 
L 76.515625 0 
L 66.890625 0 
L 66.890625 64.015625 
L 48.09375 14.015625 
L 38.1875 14.015625 
L 19.390625 64.015625 
L 19.390625 0 
L 9.8125 0 
z
" id="DejaVuSans-77"/>
     <path d="M 8.5 21.578125 
L 8.5 54.6875 
L 17.484375 54.6875 
L 17.484375 21.921875 
Q 17.484375 14.15625 20.5 10.265625 
Q 23.53125 6.390625 29.59375 6.390625 
Q 36.859375 6.390625 41.078125 11.03125 
Q 45.3125 15.671875 45.3125 23.6875 
L 45.3125 54.6875 
L 54.296875 54.6875 
L 54.296875 0 
L 45.3125 0 
L 45.3125 8.40625 
Q 42.046875 3.421875 37.71875 1 
Q 33.40625 -1.421875 27.6875 -1.421875 
Q 18.265625 -1.421875 13.375 4.4375 
Q 8.5 10.296875 8.5 21.578125 
z
M 31.109375 56 
z
" id="DejaVuSans-117"/>
    </defs>
    <g transform="translate(87.154687 23.61)scale(0.12 -0.12)">
     <use xlink:href="#DejaVuSans-65"/>
     <use x="68.408203" xlink:href="#DejaVuSans-110"/>
     <use x="131.787109" xlink:href="#DejaVuSans-122"/>
     <use x="184.277344" xlink:href="#DejaVuSans-97"/>
     <use x="245.556641" xlink:href="#DejaVuSans-104"/>
     <use x="308.935547" xlink:href="#DejaVuSans-108"/>
     <use x="336.71875" xlink:href="#DejaVuSans-32"/>
     <use x="368.505859" xlink:href="#DejaVuSans-78"/>
     <use x="443.310547" xlink:href="#DejaVuSans-97"/>
     <use x="504.589844" xlink:href="#DejaVuSans-99"/>
     <use x="559.570312" xlink:href="#DejaVuSans-104"/>
     <use x="622.949219" xlink:href="#DejaVuSans-114"/>
     <use x="664.0625" xlink:href="#DejaVuSans-105"/>
     <use x="691.845703" xlink:href="#DejaVuSans-99"/>
     <use x="746.826172" xlink:href="#DejaVuSans-104"/>
     <use x="810.205078" xlink:href="#DejaVuSans-116"/>
     <use x="849.414062" xlink:href="#DejaVuSans-101"/>
     <use x="910.9375" xlink:href="#DejaVuSans-110"/>
     <use x="974.316406" xlink:href="#DejaVuSans-32"/>
     <use x="1006.103516" xlink:href="#DejaVuSans-110"/>
     <use x="1069.482422" xlink:href="#DejaVuSans-97"/>
     <use x="1130.761719" xlink:href="#DejaVuSans-99"/>
     <use x="1185.742188" xlink:href="#DejaVuSans-104"/>
     <use x="1249.121094" xlink:href="#DejaVuSans-32"/>
     <use x="1280.908203" xlink:href="#DejaVuSans-77"/>
     <use x="1367.1875" xlink:href="#DejaVuSans-105"/>
     <use x="1394.970703" xlink:href="#DejaVuSans-110"/>
     <use x="1458.349609" xlink:href="#DejaVuSans-117"/>
     <use x="1521.728516" xlink:href="#DejaVuSans-116"/>
     <use x="1560.9375" xlink:href="#DejaVuSans-101"/>
    </g>
   </g>
  </g>
 </g>
 <defs>
  <clipPath id="p8678d5c4cf">
   <path d="M 320.4 179.1 
C 320.4 161.253776 316.884683 143.581083 310.055228 127.093322 
C 303.225774 110.60556 293.214998 95.623375 280.595812 83.004188 
C 267.976625 70.385002 252.99444 60.374226 236.506678 53.544772 
C 220.018917 46.715317 202.346224 43.2 184.5 43.2 
C 166.653776 43.2 148.981083 46.715317 132.493322 53.544772 
C 116.00556 60.374226 101.023375 70.385002 88.404188 83.004188 
C 75.785002 95.623375 65.774226 110.60556 58.944772 127.093322 
C 52.115317 143.581083 48.6 161.253776 48.6 179.1 
C 48.6 196.946224 52.115317 214.618917 58.944772 231.106678 
C 65.774226 247.59444 75.785002 262.576625 88.404188 275.195812 
C 101.023375 287.814998 116.00556 297.825774 132.493322 304.655228 
C 148.981083 311.484683 166.653776 315 184.5 315 
C 202.346224 315 220.018917 311.484683 236.506678 304.655228 
C 252.99444 297.825774 267.976625 287.814998 280.595812 275.195812 
C 293.214998 262.576625 303.225774 247.59444 310.055228 231.106678 
C 316.884683 214.618917 320.4 196.946224 320.4 179.1 
M 229.68553 179.1 
C 229.68553 185.033709 228.516719 190.909721 226.245986 196.391754 
C 223.975254 201.873786 220.646761 206.855228 216.450995 211.050995 
C 212.255228 215.246761 207.273786 218.575254 201.791754 220.845986 
C 196.309721 223.116719 190.433709 224.28553 184.5 224.28553 
C 178.566291 224.28553 172.690279 223.116719 167.208246 220.845986 
C 161.726214 218.575254 156.744772 215.246761 152.549005 211.050995 
C 148.353239 206.855228 145.024746 201.873786 142.754014 196.391754 
C 140.483281 190.909721 139.31447 185.033709 139.31447 179.1 
C 139.31447 173.166291 140.483281 167.290279 142.754014 161.808246 
C 145.024746 156.326214 148.353239 151.344772 152.549005 147.149005 
C 156.744772 142.953239 161.726214 139.624746 167.208246 137.354014 
C 172.690279 135.083281 178.566291 133.91447 184.5 133.91447 
C 190.433709 133.91447 196.309721 135.083281 201.791754 137.354014 
C 207.273786 139.624746 212.255228 142.953239 216.450995 147.149005 
C 220.646761 151.344772 223.975254 156.326214 226.245986 161.808246 
C 228.516719 167.290279 229.68553 173.166291 229.68553 179.1 
M 320.4 179.1 
z
"/>
  </clipPath>
 </defs>
</svg>
