<?xml version="1.0" encoding="utf-8" standalone="no"?>
<!DOCTYPE svg PUBLIC "-//W3C//DTD SVG 1.1//EN"
  "http://www.w3.org/Graphics/SVG/1.1/DTD/svg11.dtd">
<!-- Created with matplotlib (https://matplotlib.org/) -->
<svg version="1.1" viewBox="75 10 858 268" xmlns="http://www.w3.org/2000/svg" xmlns:xlink="http://www.w3.org/1999/xlink">
 <defs>
  <style type="text/css">
*{stroke-linecap:butt;stroke-linejoin:round;}
  </style>
 </defs>
 <g id="figure_1">
  <g id="patch_1">
   <path d="M 0 288 
L 1008 288 
L 1008 0 
L 0 0 
z
" style="fill:#ffffff;"/>
  </g>
  <g id="axes_1">
   <g id="patch_2">
    <path d="M 126 252 
L 907.2 252 
L 907.2 34.56 
L 126 34.56 
z
" style="fill:#ffffff;"/>
   </g>
   <g id="patch_3">
    <path clip-path="url(#p5280bcfb24)" d="M 161.509091 252 
L 167.427273 252 
L 167.427273 199.384472 
L 161.509091 199.384472 
z
" style="fill:#9e0142;"/>
   </g>
   <g id="patch_4">
    <path clip-path="url(#p5280bcfb24)" d="M 167.427273 252 
L 173.345455 252 
L 173.345455 218.798758 
L 167.427273 218.798758 
z
" style="fill:#9e0142;"/>
   </g>
   <g id="patch_5">
    <path clip-path="url(#p5280bcfb24)" d="M 173.345455 252 
L 179.263636 252 
L 179.263636 190.943478 
L 173.345455 190.943478 
z
" style="fill:#9e0142;"/>
   </g>
   <g id="patch_6">
    <path clip-path="url(#p5280bcfb24)" d="M 179.263636 252 
L 185.181818 252 
L 185.181818 163.369565 
L 179.263636 163.369565 
z
" style="fill:#9e0142;"/>
   </g>
   <g id="patch_7">
    <path clip-path="url(#p5280bcfb24)" d="M 185.181818 252 
L 191.1 252 
L 191.1 86.275155 
L 185.181818 86.275155 
z
" style="fill:#9e0142;"/>
   </g>
   <g id="patch_8">
    <path clip-path="url(#p5280bcfb24)" d="M 191.1 252 
L 197.018182 252 
L 197.018182 138.32795 
L 191.1 138.32795 
z
" style="fill:#9e0142;"/>
   </g>
   <g id="patch_9">
    <path clip-path="url(#p5280bcfb24)" d="M 197.018182 252 
L 202.936364 252 
L 202.936364 148.457143 
L 197.018182 148.457143 
z
" style="fill:#9e0142;"/>
   </g>
   <g id="patch_10">
    <path clip-path="url(#p5280bcfb24)" d="M 202.936364 252 
L 208.854545 252 
L 208.854545 136.921118 
L 202.936364 136.921118 
z
" style="fill:#9e0142;"/>
   </g>
   <g id="patch_11">
    <path clip-path="url(#p5280bcfb24)" d="M 208.854545 252 
L 214.772727 252 
L 214.772727 252 
L 208.854545 252 
z
" style="fill:#9e0142;"/>
   </g>
   <g id="patch_12">
    <path clip-path="url(#p5280bcfb24)" d="M 214.772727 252 
L 220.690909 252 
L 220.690909 252 
L 214.772727 252 
z
" style="fill:#9e0142;"/>
   </g>
   <g id="patch_13">
    <path clip-path="url(#p5280bcfb24)" d="M 220.690909 252 
L 226.609091 252 
L 226.609091 233.71118 
L 220.690909 233.71118 
z
" style="fill:#9e0142;"/>
   </g>
   <g id="patch_14">
    <path clip-path="url(#p5280bcfb24)" d="M 226.609091 252 
L 232.527273 252 
L 232.527273 162.806832 
L 226.609091 162.806832 
z
" style="fill:#9e0142;"/>
   </g>
   <g id="patch_15">
    <path clip-path="url(#p5280bcfb24)" d="M 232.527273 252 
L 238.445455 252 
L 238.445455 145.924845 
L 232.527273 145.924845 
z
" style="fill:#9e0142;"/>
   </g>
   <g id="patch_16">
    <path clip-path="url(#p5280bcfb24)" d="M 238.445455 252 
L 244.363636 252 
L 244.363636 44.914286 
L 238.445455 44.914286 
z
" style="fill:#9e0142;"/>
   </g>
   <g id="patch_17">
    <path clip-path="url(#p5280bcfb24)" d="M 244.363636 252 
L 250.281818 252 
L 250.281818 145.362112 
L 244.363636 145.362112 
z
" style="fill:#9e0142;"/>
   </g>
   <g id="patch_18">
    <path clip-path="url(#p5280bcfb24)" d="M 250.281818 252 
L 256.2 252 
L 256.2 141.141615 
L 250.281818 141.141615 
z
" style="fill:#9e0142;"/>
   </g>
   <g id="patch_19">
    <path clip-path="url(#p5280bcfb24)" d="M 256.2 252 
L 262.118182 252 
L 262.118182 223.019255 
L 256.2 223.019255 
z
" style="fill:#9e0142;"/>
   </g>
   <g id="patch_20">
    <path clip-path="url(#p5280bcfb24)" d="M 262.118182 252 
L 268.036364 252 
L 268.036364 203.886335 
L 262.118182 203.886335 
z
" style="fill:#9e0142;"/>
   </g>
   <g id="patch_21">
    <path clip-path="url(#p5280bcfb24)" d="M 268.036364 252 
L 273.954545 252 
L 273.954545 118.350932 
L 268.036364 118.350932 
z
" style="fill:#9e0142;"/>
   </g>
   <g id="patch_22">
    <path clip-path="url(#p5280bcfb24)" d="M 273.954545 252 
L 279.872727 252 
L 279.872727 158.867702 
L 273.954545 158.867702 
z
" style="fill:#9e0142;"/>
   </g>
   <g id="patch_23">
    <path clip-path="url(#p5280bcfb24)" d="M 279.872727 252 
L 285.790909 252 
L 285.790909 242.43354 
L 279.872727 242.43354 
z
" style="fill:#9e0142;"/>
   </g>
   <g id="patch_24">
    <path clip-path="url(#p5280bcfb24)" d="M 285.790909 252 
L 291.709091 252 
L 291.709091 240.463975 
L 285.790909 240.463975 
z
" style="fill:#9e0142;"/>
   </g>
   <g id="patch_25">
    <path clip-path="url(#p5280bcfb24)" d="M 291.709091 252 
L 297.627273 252 
L 297.627273 212.045963 
L 291.709091 212.045963 
z
" style="fill:#9e0142;"/>
   </g>
   <g id="patch_26">
    <path clip-path="url(#p5280bcfb24)" d="M 297.627273 252 
L 303.545455 252 
L 303.545455 142.548447 
L 297.627273 142.548447 
z
" style="fill:#9e0142;"/>
   </g>
   <g id="patch_27">
    <path clip-path="url(#p5280bcfb24)" d="M 303.545455 252 
L 309.463636 252 
L 309.463636 203.886335 
L 303.545455 203.886335 
z
" style="fill:#9e0142;"/>
   </g>
   <g id="patch_28">
    <path clip-path="url(#p5280bcfb24)" d="M 309.463636 252 
L 315.381818 252 
L 315.381818 184.753416 
L 309.463636 184.753416 
z
" style="fill:#9e0142;"/>
   </g>
   <g id="patch_29">
    <path clip-path="url(#p5280bcfb24)" d="M 315.381818 252 
L 321.3 252 
L 321.3 249.467702 
L 315.381818 249.467702 
z
" style="fill:#9e0142;"/>
   </g>
   <g id="patch_30">
    <path clip-path="url(#p5280bcfb24)" d="M 321.3 252 
L 327.218182 252 
L 327.218182 252 
L 321.3 252 
z
" style="fill:#9e0142;"/>
   </g>
   <g id="patch_31">
    <path clip-path="url(#p5280bcfb24)" d="M 327.218182 252 
L 333.136364 252 
L 333.136364 209.795031 
L 327.218182 209.795031 
z
" style="fill:#9e0142;"/>
   </g>
   <g id="patch_32">
    <path clip-path="url(#p5280bcfb24)" d="M 333.136364 252 
L 339.054545 252 
L 339.054545 105.408075 
L 333.136364 105.408075 
z
" style="fill:#9e0142;"/>
   </g>
   <g id="patch_33">
    <path clip-path="url(#p5280bcfb24)" d="M 339.054545 252 
L 344.972727 252 
L 344.972727 219.642857 
L 339.054545 219.642857 
z
" style="fill:#9e0142;"/>
   </g>
   <g id="patch_34">
    <path clip-path="url(#p5280bcfb24)" d="M 344.972727 252 
L 350.890909 252 
L 350.890909 236.243478 
L 344.972727 236.243478 
z
" style="fill:#9e0142;"/>
   </g>
   <g id="patch_35">
    <path clip-path="url(#p5280bcfb24)" d="M 350.890909 252 
L 356.809091 252 
L 356.809091 118.069565 
L 350.890909 118.069565 
z
" style="fill:#9e0142;"/>
   </g>
   <g id="patch_36">
    <path clip-path="url(#p5280bcfb24)" d="M 356.809091 252 
L 362.727273 252 
L 362.727273 152.67764 
L 356.809091 152.67764 
z
" style="fill:#9e0142;"/>
   </g>
   <g id="patch_37">
    <path clip-path="url(#p5280bcfb24)" d="M 362.727273 252 
L 368.645455 252 
L 368.645455 178.563354 
L 362.727273 178.563354 
z
" style="fill:#9e0142;"/>
   </g>
   <g id="patch_38">
    <path clip-path="url(#p5280bcfb24)" d="M 368.645455 252 
L 374.563636 252 
L 374.563636 188.129814 
L 368.645455 188.129814 
z
" style="fill:#9e0142;"/>
   </g>
   <g id="patch_39">
    <path clip-path="url(#p5280bcfb24)" d="M 374.563636 252 
L 380.481818 252 
L 380.481818 247.498137 
L 374.563636 247.498137 
z
" style="fill:#9e0142;"/>
   </g>
   <g id="patch_40">
    <path clip-path="url(#p5280bcfb24)" d="M 380.481818 252 
L 386.4 252 
L 386.4 230.897516 
L 380.481818 230.897516 
z
" style="fill:#9e0142;"/>
   </g>
   <g id="patch_41">
    <path clip-path="url(#p5280bcfb24)" d="M 386.4 252 
L 392.318182 252 
L 392.318182 236.524845 
L 386.4 236.524845 
z
" style="fill:#9e0142;"/>
   </g>
   <g id="patch_42">
    <path clip-path="url(#p5280bcfb24)" d="M 392.318182 252 
L 398.236364 252 
L 398.236364 204.449068 
L 392.318182 204.449068 
z
" style="fill:#9e0142;"/>
   </g>
   <g id="patch_43">
    <path clip-path="url(#p5280bcfb24)" d="M 398.236364 252 
L 404.154545 252 
L 404.154545 222.737888 
L 398.236364 222.737888 
z
" style="fill:#9e0142;"/>
   </g>
   <g id="patch_44">
    <path clip-path="url(#p5280bcfb24)" d="M 404.154545 252 
L 410.072727 252 
L 410.072727 192.350311 
L 404.154545 192.350311 
z
" style="fill:#9e0142;"/>
   </g>
   <g id="patch_45">
    <path clip-path="url(#p5280bcfb24)" d="M 410.072727 252 
L 415.990909 252 
L 415.990909 176.875155 
L 410.072727 176.875155 
z
" style="fill:#9e0142;"/>
   </g>
   <g id="patch_46">
    <path clip-path="url(#p5280bcfb24)" d="M 415.990909 252 
L 421.909091 252 
L 421.909091 177.437888 
L 415.990909 177.437888 
z
" style="fill:#9e0142;"/>
   </g>
   <g id="patch_47">
    <path clip-path="url(#p5280bcfb24)" d="M 421.909091 252 
L 427.827273 252 
L 427.827273 193.757143 
L 421.909091 193.757143 
z
" style="fill:#9e0142;"/>
   </g>
   <g id="patch_48">
    <path clip-path="url(#p5280bcfb24)" d="M 427.827273 252 
L 433.745455 252 
L 433.745455 134.951553 
L 427.827273 134.951553 
z
" style="fill:#9e0142;"/>
   </g>
   <g id="patch_49">
    <path clip-path="url(#p5280bcfb24)" d="M 433.745455 252 
L 439.663636 252 
L 439.663636 155.491304 
L 433.745455 155.491304 
z
" style="fill:#9e0142;"/>
   </g>
   <g id="patch_50">
    <path clip-path="url(#p5280bcfb24)" d="M 439.663636 252 
L 445.581818 252 
L 445.581818 241.308075 
L 439.663636 241.308075 
z
" style="fill:#9e0142;"/>
   </g>
   <g id="patch_51">
    <path clip-path="url(#p5280bcfb24)" d="M 445.581818 252 
L 451.5 252 
L 451.5 206.418634 
L 445.581818 206.418634 
z
" style="fill:#9e0142;"/>
   </g>
   <g id="patch_52">
    <path clip-path="url(#p5280bcfb24)" d="M 451.5 252 
L 457.418182 252 
L 457.418182 252 
L 451.5 252 
z
" style="fill:#9e0142;"/>
   </g>
   <g id="patch_53">
    <path clip-path="url(#p5280bcfb24)" d="M 457.418182 252 
L 463.336364 252 
L 463.336364 252 
L 457.418182 252 
z
" style="fill:#9e0142;"/>
   </g>
   <g id="patch_54">
    <path clip-path="url(#p5280bcfb24)" d="M 463.336364 252 
L 469.254545 252 
L 469.254545 252 
L 463.336364 252 
z
" style="fill:#9e0142;"/>
   </g>
   <g id="patch_55">
    <path clip-path="url(#p5280bcfb24)" d="M 469.254545 252 
L 475.172727 252 
L 475.172727 250.593168 
L 469.254545 250.593168 
z
" style="fill:#9e0142;"/>
   </g>
   <g id="patch_56">
    <path clip-path="url(#p5280bcfb24)" d="M 475.172727 252 
L 481.090909 252 
L 481.090909 252 
L 475.172727 252 
z
" style="fill:#9e0142;"/>
   </g>
   <g id="patch_57">
    <path clip-path="url(#p5280bcfb24)" d="M 481.090909 252 
L 487.009091 252 
L 487.009091 243.840373 
L 481.090909 243.840373 
z
" style="fill:#9e0142;"/>
   </g>
   <g id="patch_58">
    <path clip-path="url(#p5280bcfb24)" d="M 487.009091 252 
L 492.927273 252 
L 492.927273 240.745342 
L 487.009091 240.745342 
z
" style="fill:#9e0142;"/>
   </g>
   <g id="patch_59">
    <path clip-path="url(#p5280bcfb24)" d="M 492.927273 252 
L 498.845455 252 
L 498.845455 229.77205 
L 492.927273 229.77205 
z
" style="fill:#9e0142;"/>
   </g>
   <g id="patch_60">
    <path clip-path="url(#p5280bcfb24)" d="M 498.845455 252 
L 504.763636 252 
L 504.763636 201.354037 
L 498.845455 201.354037 
z
" style="fill:#9e0142;"/>
   </g>
   <g id="patch_61">
    <path clip-path="url(#p5280bcfb24)" d="M 504.763636 252 
L 510.681818 252 
L 510.681818 196.570807 
L 504.763636 196.570807 
z
" style="fill:#9e0142;"/>
   </g>
   <g id="patch_62">
    <path clip-path="url(#p5280bcfb24)" d="M 510.681818 252 
L 516.6 252 
L 516.6 202.479503 
L 510.681818 202.479503 
z
" style="fill:#9e0142;"/>
   </g>
   <g id="patch_63">
    <path clip-path="url(#p5280bcfb24)" d="M 516.6 252 
L 522.518182 252 
L 522.518182 221.331056 
L 516.6 221.331056 
z
" style="fill:#9e0142;"/>
   </g>
   <g id="patch_64">
    <path clip-path="url(#p5280bcfb24)" d="M 522.518182 252 
L 528.436364 252 
L 528.436364 214.859627 
L 522.518182 214.859627 
z
" style="fill:#9e0142;"/>
   </g>
   <g id="patch_65">
    <path clip-path="url(#p5280bcfb24)" d="M 528.436364 252 
L 534.354545 252 
L 534.354545 248.06087 
L 528.436364 248.06087 
z
" style="fill:#9e0142;"/>
   </g>
   <g id="patch_66">
    <path clip-path="url(#p5280bcfb24)" d="M 534.354545 252 
L 540.272727 252 
L 540.272727 239.057143 
L 534.354545 239.057143 
z
" style="fill:#9e0142;"/>
   </g>
   <g id="patch_67">
    <path clip-path="url(#p5280bcfb24)" d="M 540.272727 252 
L 546.190909 252 
L 546.190909 236.806211 
L 540.272727 236.806211 
z
" style="fill:#9e0142;"/>
   </g>
   <g id="patch_68">
    <path clip-path="url(#p5280bcfb24)" d="M 546.190909 252 
L 552.109091 252 
L 552.109091 209.795031 
L 546.190909 209.795031 
z
" style="fill:#9e0142;"/>
   </g>
   <g id="patch_69">
    <path clip-path="url(#p5280bcfb24)" d="M 552.109091 252 
L 558.027273 252 
L 558.027273 185.034783 
L 552.109091 185.034783 
z
" style="fill:#9e0142;"/>
   </g>
   <g id="patch_70">
    <path clip-path="url(#p5280bcfb24)" d="M 558.027273 252 
L 563.945455 252 
L 563.945455 123.415528 
L 558.027273 123.415528 
z
" style="fill:#9e0142;"/>
   </g>
   <g id="patch_71">
    <path clip-path="url(#p5280bcfb24)" d="M 563.945455 252 
L 569.863636 252 
L 569.863636 221.893789 
L 563.945455 221.893789 
z
" style="fill:#9e0142;"/>
   </g>
   <g id="patch_72">
    <path clip-path="url(#p5280bcfb24)" d="M 569.863636 252 
L 575.781818 252 
L 575.781818 194.038509 
L 569.863636 194.038509 
z
" style="fill:#9e0142;"/>
   </g>
   <g id="patch_73">
    <path clip-path="url(#p5280bcfb24)" d="M 575.781818 252 
L 581.7 252 
L 581.7 184.47205 
L 575.781818 184.47205 
z
" style="fill:#9e0142;"/>
   </g>
   <g id="patch_74">
    <path clip-path="url(#p5280bcfb24)" d="M 581.7 252 
L 587.618182 252 
L 587.618182 214.296894 
L 581.7 214.296894 
z
" style="fill:#9e0142;"/>
   </g>
   <g id="patch_75">
    <path clip-path="url(#p5280bcfb24)" d="M 587.618182 252 
L 593.536364 252 
L 593.536364 223.863354 
L 587.618182 223.863354 
z
" style="fill:#9e0142;"/>
   </g>
   <g id="patch_76">
    <path clip-path="url(#p5280bcfb24)" d="M 593.536364 252 
L 599.454545 252 
L 599.454545 232.585714 
L 593.536364 232.585714 
z
" style="fill:#9e0142;"/>
   </g>
   <g id="patch_77">
    <path clip-path="url(#p5280bcfb24)" d="M 599.454545 252 
L 605.372727 252 
L 605.372727 252 
L 599.454545 252 
z
" style="fill:#9e0142;"/>
   </g>
   <g id="patch_78">
    <path clip-path="url(#p5280bcfb24)" d="M 605.372727 252 
L 611.290909 252 
L 611.290909 230.053416 
L 605.372727 230.053416 
z
" style="fill:#9e0142;"/>
   </g>
   <g id="patch_79">
    <path clip-path="url(#p5280bcfb24)" d="M 611.290909 252 
L 617.209091 252 
L 617.209091 227.239752 
L 611.290909 227.239752 
z
" style="fill:#9e0142;"/>
   </g>
   <g id="patch_80">
    <path clip-path="url(#p5280bcfb24)" d="M 617.209091 252 
L 623.127273 252 
L 623.127273 160.555901 
L 617.209091 160.555901 
z
" style="fill:#9e0142;"/>
   </g>
   <g id="patch_81">
    <path clip-path="url(#p5280bcfb24)" d="M 623.127273 252 
L 629.045455 252 
L 629.045455 204.449068 
L 623.127273 204.449068 
z
" style="fill:#9e0142;"/>
   </g>
   <g id="patch_82">
    <path clip-path="url(#p5280bcfb24)" d="M 629.045455 252 
L 634.963636 252 
L 634.963636 204.730435 
L 629.045455 204.730435 
z
" style="fill:#9e0142;"/>
   </g>
   <g id="patch_83">
    <path clip-path="url(#p5280bcfb24)" d="M 634.963636 252 
L 640.881818 252 
L 640.881818 252 
L 634.963636 252 
z
" style="fill:#9e0142;"/>
   </g>
   <g id="patch_84">
    <path clip-path="url(#p5280bcfb24)" d="M 640.881818 252 
L 646.8 252 
L 646.8 247.498137 
L 640.881818 247.498137 
z
" style="fill:#9e0142;"/>
   </g>
   <g id="patch_85">
    <path clip-path="url(#p5280bcfb24)" d="M 646.8 252 
L 652.718182 252 
L 652.718182 240.182609 
L 646.8 240.182609 
z
" style="fill:#9e0142;"/>
   </g>
   <g id="patch_86">
    <path clip-path="url(#p5280bcfb24)" d="M 652.718182 252 
L 658.636364 252 
L 658.636364 207.544099 
L 652.718182 207.544099 
z
" style="fill:#9e0142;"/>
   </g>
   <g id="patch_87">
    <path clip-path="url(#p5280bcfb24)" d="M 658.636364 252 
L 664.554545 252 
L 664.554545 241.026708 
L 658.636364 241.026708 
z
" style="fill:#9e0142;"/>
   </g>
   <g id="patch_88">
    <path clip-path="url(#p5280bcfb24)" d="M 664.554545 252 
L 670.472727 252 
L 670.472727 234.836646 
L 664.554545 234.836646 
z
" style="fill:#9e0142;"/>
   </g>
   <g id="patch_89">
    <path clip-path="url(#p5280bcfb24)" d="M 670.472727 252 
L 676.390909 252 
L 676.390909 234.836646 
L 670.472727 234.836646 
z
" style="fill:#9e0142;"/>
   </g>
   <g id="patch_90">
    <path clip-path="url(#p5280bcfb24)" d="M 676.390909 252 
L 682.309091 252 
L 682.309091 237.368944 
L 676.390909 237.368944 
z
" style="fill:#9e0142;"/>
   </g>
   <g id="patch_91">
    <path clip-path="url(#p5280bcfb24)" d="M 682.309091 252 
L 688.227273 252 
L 688.227273 238.213043 
L 682.309091 238.213043 
z
" style="fill:#9e0142;"/>
   </g>
   <g id="patch_92">
    <path clip-path="url(#p5280bcfb24)" d="M 688.227273 252 
L 694.145455 252 
L 694.145455 249.186335 
L 688.227273 249.186335 
z
" style="fill:#9e0142;"/>
   </g>
   <g id="patch_93">
    <path clip-path="url(#p5280bcfb24)" d="M 694.145455 252 
L 700.063636 252 
L 700.063636 242.996273 
L 694.145455 242.996273 
z
" style="fill:#9e0142;"/>
   </g>
   <g id="patch_94">
    <path clip-path="url(#p5280bcfb24)" d="M 700.063636 252 
L 705.981818 252 
L 705.981818 232.022981 
L 700.063636 232.022981 
z
" style="fill:#9e0142;"/>
   </g>
   <g id="patch_95">
    <path clip-path="url(#p5280bcfb24)" d="M 705.981818 252 
L 711.9 252 
L 711.9 192.913043 
L 705.981818 192.913043 
z
" style="fill:#9e0142;"/>
   </g>
   <g id="patch_96">
    <path clip-path="url(#p5280bcfb24)" d="M 711.9 252 
L 717.818182 252 
L 717.818182 189.25528 
L 711.9 189.25528 
z
" style="fill:#9e0142;"/>
   </g>
   <g id="patch_97">
    <path clip-path="url(#p5280bcfb24)" d="M 717.818182 252 
L 723.736364 252 
L 723.736364 223.581988 
L 717.818182 223.581988 
z
" style="fill:#9e0142;"/>
   </g>
   <g id="patch_98">
    <path clip-path="url(#p5280bcfb24)" d="M 723.736364 252 
L 729.654545 252 
L 729.654545 175.186957 
L 723.736364 175.186957 
z
" style="fill:#9e0142;"/>
   </g>
   <g id="patch_99">
    <path clip-path="url(#p5280bcfb24)" d="M 729.654545 252 
L 735.572727 252 
L 735.572727 233.429814 
L 729.654545 233.429814 
z
" style="fill:#9e0142;"/>
   </g>
   <g id="patch_100">
    <path clip-path="url(#p5280bcfb24)" d="M 735.572727 252 
L 741.490909 252 
L 741.490909 204.730435 
L 735.572727 204.730435 
z
" style="fill:#9e0142;"/>
   </g>
   <g id="patch_101">
    <path clip-path="url(#p5280bcfb24)" d="M 741.490909 252 
L 747.409091 252 
L 747.409091 208.106832 
L 741.490909 208.106832 
z
" style="fill:#9e0142;"/>
   </g>
   <g id="patch_102">
    <path clip-path="url(#p5280bcfb24)" d="M 747.409091 252 
L 753.327273 252 
L 753.327273 217.110559 
L 747.409091 217.110559 
z
" style="fill:#9e0142;"/>
   </g>
   <g id="patch_103">
    <path clip-path="url(#p5280bcfb24)" d="M 753.327273 252 
L 759.245455 252 
L 759.245455 218.236025 
L 753.327273 218.236025 
z
" style="fill:#9e0142;"/>
   </g>
   <g id="patch_104">
    <path clip-path="url(#p5280bcfb24)" d="M 759.245455 252 
L 765.163636 252 
L 765.163636 235.399379 
L 759.245455 235.399379 
z
" style="fill:#9e0142;"/>
   </g>
   <g id="patch_105">
    <path clip-path="url(#p5280bcfb24)" d="M 765.163636 252 
L 771.081818 252 
L 771.081818 244.684472 
L 765.163636 244.684472 
z
" style="fill:#9e0142;"/>
   </g>
   <g id="patch_106">
    <path clip-path="url(#p5280bcfb24)" d="M 771.081818 252 
L 777 252 
L 777 252 
L 771.081818 252 
z
" style="fill:#9e0142;"/>
   </g>
   <g id="patch_107">
    <path clip-path="url(#p5280bcfb24)" d="M 777 252 
L 782.918182 252 
L 782.918182 252 
L 777 252 
z
" style="fill:#9e0142;"/>
   </g>
   <g id="patch_108">
    <path clip-path="url(#p5280bcfb24)" d="M 782.918182 252 
L 788.836364 252 
L 788.836364 246.654037 
L 782.918182 246.654037 
z
" style="fill:#9e0142;"/>
   </g>
   <g id="patch_109">
    <path clip-path="url(#p5280bcfb24)" d="M 788.836364 252 
L 794.754545 252 
L 794.754545 251.437267 
L 788.836364 251.437267 
z
" style="fill:#9e0142;"/>
   </g>
   <g id="patch_110">
    <path clip-path="url(#p5280bcfb24)" d="M 794.754545 252 
L 800.672727 252 
L 800.672727 241.308075 
L 794.754545 241.308075 
z
" style="fill:#9e0142;"/>
   </g>
   <g id="patch_111">
    <path clip-path="url(#p5280bcfb24)" d="M 800.672727 252 
L 806.590909 252 
L 806.590909 244.121739 
L 800.672727 244.121739 
z
" style="fill:#9e0142;"/>
   </g>
   <g id="patch_112">
    <path clip-path="url(#p5280bcfb24)" d="M 806.590909 252 
L 812.509091 252 
L 812.509091 227.521118 
L 806.590909 227.521118 
z
" style="fill:#9e0142;"/>
   </g>
   <g id="patch_113">
    <path clip-path="url(#p5280bcfb24)" d="M 812.509091 252 
L 818.427273 252 
L 818.427273 224.98882 
L 812.509091 224.98882 
z
" style="fill:#9e0142;"/>
   </g>
   <g id="patch_114">
    <path clip-path="url(#p5280bcfb24)" d="M 818.427273 252 
L 824.345455 252 
L 824.345455 207.544099 
L 818.427273 207.544099 
z
" style="fill:#9e0142;"/>
   </g>
   <g id="patch_115">
    <path clip-path="url(#p5280bcfb24)" d="M 824.345455 252 
L 830.263636 252 
L 830.263636 227.802484 
L 824.345455 227.802484 
z
" style="fill:#9e0142;"/>
   </g>
   <g id="patch_116">
    <path clip-path="url(#p5280bcfb24)" d="M 830.263636 252 
L 836.181818 252 
L 836.181818 233.992547 
L 830.263636 233.992547 
z
" style="fill:#9e0142;"/>
   </g>
   <g id="patch_117">
    <path clip-path="url(#p5280bcfb24)" d="M 836.181818 252 
L 842.1 252 
L 842.1 217.391925 
L 836.181818 217.391925 
z
" style="fill:#9e0142;"/>
   </g>
   <g id="patch_118">
    <path clip-path="url(#p5280bcfb24)" d="M 842.1 252 
L 848.018182 252 
L 848.018182 252 
L 842.1 252 
z
" style="fill:#9e0142;"/>
   </g>
   <g id="patch_119">
    <path clip-path="url(#p5280bcfb24)" d="M 848.018182 252 
L 853.936364 252 
L 853.936364 252 
L 848.018182 252 
z
" style="fill:#9e0142;"/>
   </g>
   <g id="patch_120">
    <path clip-path="url(#p5280bcfb24)" d="M 853.936364 252 
L 859.854545 252 
L 859.854545 252 
L 853.936364 252 
z
" style="fill:#9e0142;"/>
   </g>
   <g id="patch_121">
    <path clip-path="url(#p5280bcfb24)" d="M 859.854545 252 
L 865.772727 252 
L 865.772727 238.49441 
L 859.854545 238.49441 
z
" style="fill:#9e0142;"/>
   </g>
   <g id="patch_122">
    <path clip-path="url(#p5280bcfb24)" d="M 865.772727 252 
L 871.690909 252 
L 871.690909 229.77205 
L 865.772727 229.77205 
z
" style="fill:#9e0142;"/>
   </g>
   <g id="matplotlib.axis_1">
    <g id="xtick_1">
     <g id="line2d_1">
      <defs>
       <path d="M 0 0 
L 0 3.5 
" id="m40ac3da61c" style="stroke:#000000;stroke-width:0.8;"/>
      </defs>
      <g>
       <use style="stroke:#000000;stroke-width:0.8;" x="128.048097" xlink:href="#m40ac3da61c" y="252"/>
      </g>
     </g>
     <g id="text_1">
      <!-- 2016-07 -->
      <defs>
       <path d="M 19.1875 8.296875 
L 53.609375 8.296875 
L 53.609375 0 
L 7.328125 0 
L 7.328125 8.296875 
Q 12.9375 14.109375 22.625 23.890625 
Q 32.328125 33.6875 34.8125 36.53125 
Q 39.546875 41.84375 41.421875 45.53125 
Q 43.3125 49.21875 43.3125 52.78125 
Q 43.3125 58.59375 39.234375 62.25 
Q 35.15625 65.921875 28.609375 65.921875 
Q 23.96875 65.921875 18.8125 64.3125 
Q 13.671875 62.703125 7.8125 59.421875 
L 7.8125 69.390625 
Q 13.765625 71.78125 18.9375 73 
Q 24.125 74.21875 28.421875 74.21875 
Q 39.75 74.21875 46.484375 68.546875 
Q 53.21875 62.890625 53.21875 53.421875 
Q 53.21875 48.921875 51.53125 44.890625 
Q 49.859375 40.875 45.40625 35.40625 
Q 44.1875 33.984375 37.640625 27.21875 
Q 31.109375 20.453125 19.1875 8.296875 
z
" id="DejaVuSans-50"/>
       <path d="M 31.78125 66.40625 
Q 24.171875 66.40625 20.328125 58.90625 
Q 16.5 51.421875 16.5 36.375 
Q 16.5 21.390625 20.328125 13.890625 
Q 24.171875 6.390625 31.78125 6.390625 
Q 39.453125 6.390625 43.28125 13.890625 
Q 47.125 21.390625 47.125 36.375 
Q 47.125 51.421875 43.28125 58.90625 
Q 39.453125 66.40625 31.78125 66.40625 
z
M 31.78125 74.21875 
Q 44.046875 74.21875 50.515625 64.515625 
Q 56.984375 54.828125 56.984375 36.375 
Q 56.984375 17.96875 50.515625 8.265625 
Q 44.046875 -1.421875 31.78125 -1.421875 
Q 19.53125 -1.421875 13.0625 8.265625 
Q 6.59375 17.96875 6.59375 36.375 
Q 6.59375 54.828125 13.0625 64.515625 
Q 19.53125 74.21875 31.78125 74.21875 
z
" id="DejaVuSans-48"/>
       <path d="M 12.40625 8.296875 
L 28.515625 8.296875 
L 28.515625 63.921875 
L 10.984375 60.40625 
L 10.984375 69.390625 
L 28.421875 72.90625 
L 38.28125 72.90625 
L 38.28125 8.296875 
L 54.390625 8.296875 
L 54.390625 0 
L 12.40625 0 
z
" id="DejaVuSans-49"/>
       <path d="M 33.015625 40.375 
Q 26.375 40.375 22.484375 35.828125 
Q 18.609375 31.296875 18.609375 23.390625 
Q 18.609375 15.53125 22.484375 10.953125 
Q 26.375 6.390625 33.015625 6.390625 
Q 39.65625 6.390625 43.53125 10.953125 
Q 47.40625 15.53125 47.40625 23.390625 
Q 47.40625 31.296875 43.53125 35.828125 
Q 39.65625 40.375 33.015625 40.375 
z
M 52.59375 71.296875 
L 52.59375 62.3125 
Q 48.875 64.0625 45.09375 64.984375 
Q 41.3125 65.921875 37.59375 65.921875 
Q 27.828125 65.921875 22.671875 59.328125 
Q 17.53125 52.734375 16.796875 39.40625 
Q 19.671875 43.65625 24.015625 45.921875 
Q 28.375 48.1875 33.59375 48.1875 
Q 44.578125 48.1875 50.953125 41.515625 
Q 57.328125 34.859375 57.328125 23.390625 
Q 57.328125 12.15625 50.6875 5.359375 
Q 44.046875 -1.421875 33.015625 -1.421875 
Q 20.359375 -1.421875 13.671875 8.265625 
Q 6.984375 17.96875 6.984375 36.375 
Q 6.984375 53.65625 15.1875 63.9375 
Q 23.390625 74.21875 37.203125 74.21875 
Q 40.921875 74.21875 44.703125 73.484375 
Q 48.484375 72.75 52.59375 71.296875 
z
" id="DejaVuSans-54"/>
       <path d="M 4.890625 31.390625 
L 31.203125 31.390625 
L 31.203125 23.390625 
L 4.890625 23.390625 
z
" id="DejaVuSans-45"/>
       <path d="M 8.203125 72.90625 
L 55.078125 72.90625 
L 55.078125 68.703125 
L 28.609375 0 
L 18.3125 0 
L 43.21875 64.59375 
L 8.203125 64.59375 
z
" id="DejaVuSans-55"/>
      </defs>
      <g transform="translate(107.156691 266.598437)scale(0.1 -0.1)">
       <use xlink:href="#DejaVuSans-50"/>
       <use x="63.623047" xlink:href="#DejaVuSans-48"/>
       <use x="127.246094" xlink:href="#DejaVuSans-49"/>
       <use x="190.869141" xlink:href="#DejaVuSans-54"/>
       <use x="254.492188" xlink:href="#DejaVuSans-45"/>
       <use x="290.576172" xlink:href="#DejaVuSans-48"/>
       <use x="354.199219" xlink:href="#DejaVuSans-55"/>
      </g>
     </g>
    </g>
    <g id="xtick_2">
     <g id="line2d_2">
      <g>
       <use style="stroke:#000000;stroke-width:0.8;" x="207.890039" xlink:href="#m40ac3da61c" y="252"/>
      </g>
     </g>
     <g id="text_2">
      <!-- 2016-10 -->
      <g transform="translate(186.998633 266.598437)scale(0.1 -0.1)">
       <use xlink:href="#DejaVuSans-50"/>
       <use x="63.623047" xlink:href="#DejaVuSans-48"/>
       <use x="127.246094" xlink:href="#DejaVuSans-49"/>
       <use x="190.869141" xlink:href="#DejaVuSans-54"/>
       <use x="254.492188" xlink:href="#DejaVuSans-45"/>
       <use x="290.576172" xlink:href="#DejaVuSans-49"/>
       <use x="354.199219" xlink:href="#DejaVuSans-48"/>
      </g>
     </g>
    </g>
    <g id="xtick_3">
     <g id="line2d_3">
      <g>
       <use style="stroke:#000000;stroke-width:0.8;" x="287.731981" xlink:href="#m40ac3da61c" y="252"/>
      </g>
     </g>
     <g id="text_3">
      <!-- 2017-01 -->
      <g transform="translate(266.840575 266.598437)scale(0.1 -0.1)">
       <use xlink:href="#DejaVuSans-50"/>
       <use x="63.623047" xlink:href="#DejaVuSans-48"/>
       <use x="127.246094" xlink:href="#DejaVuSans-49"/>
       <use x="190.869141" xlink:href="#DejaVuSans-55"/>
       <use x="254.492188" xlink:href="#DejaVuSans-45"/>
       <use x="290.576172" xlink:href="#DejaVuSans-48"/>
       <use x="354.199219" xlink:href="#DejaVuSans-49"/>
      </g>
     </g>
    </g>
    <g id="xtick_4">
     <g id="line2d_4">
      <g>
       <use style="stroke:#000000;stroke-width:0.8;" x="365.838228" xlink:href="#m40ac3da61c" y="252"/>
      </g>
     </g>
     <g id="text_4">
      <!-- 2017-04 -->
      <defs>
       <path d="M 37.796875 64.3125 
L 12.890625 25.390625 
L 37.796875 25.390625 
z
M 35.203125 72.90625 
L 47.609375 72.90625 
L 47.609375 25.390625 
L 58.015625 25.390625 
L 58.015625 17.1875 
L 47.609375 17.1875 
L 47.609375 0 
L 37.796875 0 
L 37.796875 17.1875 
L 4.890625 17.1875 
L 4.890625 26.703125 
z
" id="DejaVuSans-52"/>
      </defs>
      <g transform="translate(344.946822 266.598437)scale(0.1 -0.1)">
       <use xlink:href="#DejaVuSans-50"/>
       <use x="63.623047" xlink:href="#DejaVuSans-48"/>
       <use x="127.246094" xlink:href="#DejaVuSans-49"/>
       <use x="190.869141" xlink:href="#DejaVuSans-55"/>
       <use x="254.492188" xlink:href="#DejaVuSans-45"/>
       <use x="290.576172" xlink:href="#DejaVuSans-48"/>
       <use x="354.199219" xlink:href="#DejaVuSans-52"/>
      </g>
     </g>
    </g>
    <g id="xtick_5">
     <g id="line2d_5">
      <g>
       <use style="stroke:#000000;stroke-width:0.8;" x="444.812323" xlink:href="#m40ac3da61c" y="252"/>
      </g>
     </g>
     <g id="text_5">
      <!-- 2017-07 -->
      <g transform="translate(423.920917 266.598437)scale(0.1 -0.1)">
       <use xlink:href="#DejaVuSans-50"/>
       <use x="63.623047" xlink:href="#DejaVuSans-48"/>
       <use x="127.246094" xlink:href="#DejaVuSans-49"/>
       <use x="190.869141" xlink:href="#DejaVuSans-55"/>
       <use x="254.492188" xlink:href="#DejaVuSans-45"/>
       <use x="290.576172" xlink:href="#DejaVuSans-48"/>
       <use x="354.199219" xlink:href="#DejaVuSans-55"/>
      </g>
     </g>
    </g>
    <g id="xtick_6">
     <g id="line2d_6">
      <g>
       <use style="stroke:#000000;stroke-width:0.8;" x="524.654265" xlink:href="#m40ac3da61c" y="252"/>
      </g>
     </g>
     <g id="text_6">
      <!-- 2017-10 -->
      <g transform="translate(503.762859 266.598437)scale(0.1 -0.1)">
       <use xlink:href="#DejaVuSans-50"/>
       <use x="63.623047" xlink:href="#DejaVuSans-48"/>
       <use x="127.246094" xlink:href="#DejaVuSans-49"/>
       <use x="190.869141" xlink:href="#DejaVuSans-55"/>
       <use x="254.492188" xlink:href="#DejaVuSans-45"/>
       <use x="290.576172" xlink:href="#DejaVuSans-49"/>
       <use x="354.199219" xlink:href="#DejaVuSans-48"/>
      </g>
     </g>
    </g>
    <g id="xtick_7">
     <g id="line2d_7">
      <g>
       <use style="stroke:#000000;stroke-width:0.8;" x="604.496207" xlink:href="#m40ac3da61c" y="252"/>
      </g>
     </g>
     <g id="text_7">
      <!-- 2018-01 -->
      <defs>
       <path d="M 31.78125 34.625 
Q 24.75 34.625 20.71875 30.859375 
Q 16.703125 27.09375 16.703125 20.515625 
Q 16.703125 13.921875 20.71875 10.15625 
Q 24.75 6.390625 31.78125 6.390625 
Q 38.8125 6.390625 42.859375 10.171875 
Q 46.921875 13.96875 46.921875 20.515625 
Q 46.921875 27.09375 42.890625 30.859375 
Q 38.875 34.625 31.78125 34.625 
z
M 21.921875 38.8125 
Q 15.578125 40.375 12.03125 44.71875 
Q 8.5 49.078125 8.5 55.328125 
Q 8.5 64.0625 14.71875 69.140625 
Q 20.953125 74.21875 31.78125 74.21875 
Q 42.671875 74.21875 48.875 69.140625 
Q 55.078125 64.0625 55.078125 55.328125 
Q 55.078125 49.078125 51.53125 44.71875 
Q 48 40.375 41.703125 38.8125 
Q 48.828125 37.15625 52.796875 32.3125 
Q 56.78125 27.484375 56.78125 20.515625 
Q 56.78125 9.90625 50.3125 4.234375 
Q 43.84375 -1.421875 31.78125 -1.421875 
Q 19.734375 -1.421875 13.25 4.234375 
Q 6.78125 9.90625 6.78125 20.515625 
Q 6.78125 27.484375 10.78125 32.3125 
Q 14.796875 37.15625 21.921875 38.8125 
z
M 18.3125 54.390625 
Q 18.3125 48.734375 21.84375 45.5625 
Q 25.390625 42.390625 31.78125 42.390625 
Q 38.140625 42.390625 41.71875 45.5625 
Q 45.3125 48.734375 45.3125 54.390625 
Q 45.3125 60.0625 41.71875 63.234375 
Q 38.140625 66.40625 31.78125 66.40625 
Q 25.390625 66.40625 21.84375 63.234375 
Q 18.3125 60.0625 18.3125 54.390625 
z
" id="DejaVuSans-56"/>
      </defs>
      <g transform="translate(583.6048 266.598437)scale(0.1 -0.1)">
       <use xlink:href="#DejaVuSans-50"/>
       <use x="63.623047" xlink:href="#DejaVuSans-48"/>
       <use x="127.246094" xlink:href="#DejaVuSans-49"/>
       <use x="190.869141" xlink:href="#DejaVuSans-56"/>
       <use x="254.492188" xlink:href="#DejaVuSans-45"/>
       <use x="290.576172" xlink:href="#DejaVuSans-48"/>
       <use x="354.199219" xlink:href="#DejaVuSans-49"/>
      </g>
     </g>
    </g>
    <g id="xtick_8">
     <g id="line2d_8">
      <g>
       <use style="stroke:#000000;stroke-width:0.8;" x="682.602454" xlink:href="#m40ac3da61c" y="252"/>
      </g>
     </g>
     <g id="text_8">
      <!-- 2018-04 -->
      <g transform="translate(661.711048 266.598437)scale(0.1 -0.1)">
       <use xlink:href="#DejaVuSans-50"/>
       <use x="63.623047" xlink:href="#DejaVuSans-48"/>
       <use x="127.246094" xlink:href="#DejaVuSans-49"/>
       <use x="190.869141" xlink:href="#DejaVuSans-56"/>
       <use x="254.492188" xlink:href="#DejaVuSans-45"/>
       <use x="290.576172" xlink:href="#DejaVuSans-48"/>
       <use x="354.199219" xlink:href="#DejaVuSans-52"/>
      </g>
     </g>
    </g>
    <g id="xtick_9">
     <g id="line2d_9">
      <g>
       <use style="stroke:#000000;stroke-width:0.8;" x="761.576549" xlink:href="#m40ac3da61c" y="252"/>
      </g>
     </g>
     <g id="text_9">
      <!-- 2018-07 -->
      <g transform="translate(740.685142 266.598437)scale(0.1 -0.1)">
       <use xlink:href="#DejaVuSans-50"/>
       <use x="63.623047" xlink:href="#DejaVuSans-48"/>
       <use x="127.246094" xlink:href="#DejaVuSans-49"/>
       <use x="190.869141" xlink:href="#DejaVuSans-56"/>
       <use x="254.492188" xlink:href="#DejaVuSans-45"/>
       <use x="290.576172" xlink:href="#DejaVuSans-48"/>
       <use x="354.199219" xlink:href="#DejaVuSans-55"/>
      </g>
     </g>
    </g>
    <g id="xtick_10">
     <g id="line2d_10">
      <g>
       <use style="stroke:#000000;stroke-width:0.8;" x="841.418491" xlink:href="#m40ac3da61c" y="252"/>
      </g>
     </g>
     <g id="text_10">
      <!-- 2018-10 -->
      <g transform="translate(820.527084 266.598437)scale(0.1 -0.1)">
       <use xlink:href="#DejaVuSans-50"/>
       <use x="63.623047" xlink:href="#DejaVuSans-48"/>
       <use x="127.246094" xlink:href="#DejaVuSans-49"/>
       <use x="190.869141" xlink:href="#DejaVuSans-56"/>
       <use x="254.492188" xlink:href="#DejaVuSans-45"/>
       <use x="290.576172" xlink:href="#DejaVuSans-49"/>
       <use x="354.199219" xlink:href="#DejaVuSans-48"/>
      </g>
     </g>
    </g>
   </g>
   <g id="matplotlib.axis_2">
    <g id="ytick_1">
     <g id="line2d_11">
      <defs>
       <path d="M 0 0 
L -3.5 0 
" id="mdeb8436e6b" style="stroke:#000000;stroke-width:0.8;"/>
      </defs>
      <g>
       <use style="stroke:#000000;stroke-width:0.8;" x="126" xlink:href="#mdeb8436e6b" y="252"/>
      </g>
     </g>
     <g id="text_11">
      <!-- 0 -->
      <g transform="translate(112.6375 255.799219)scale(0.1 -0.1)">
       <use xlink:href="#DejaVuSans-48"/>
      </g>
     </g>
    </g>
    <g id="ytick_2">
     <g id="line2d_12">
      <g>
       <use style="stroke:#000000;stroke-width:0.8;" x="126" xlink:href="#mdeb8436e6b" y="223.863354"/>
      </g>
     </g>
     <g id="text_12">
      <!-- 100 -->
      <g transform="translate(99.9125 227.662573)scale(0.1 -0.1)">
       <use xlink:href="#DejaVuSans-49"/>
       <use x="63.623047" xlink:href="#DejaVuSans-48"/>
       <use x="127.246094" xlink:href="#DejaVuSans-48"/>
      </g>
     </g>
    </g>
    <g id="ytick_3">
     <g id="line2d_13">
      <g>
       <use style="stroke:#000000;stroke-width:0.8;" x="126" xlink:href="#mdeb8436e6b" y="195.726708"/>
      </g>
     </g>
     <g id="text_13">
      <!-- 200 -->
      <g transform="translate(99.9125 199.525927)scale(0.1 -0.1)">
       <use xlink:href="#DejaVuSans-50"/>
       <use x="63.623047" xlink:href="#DejaVuSans-48"/>
       <use x="127.246094" xlink:href="#DejaVuSans-48"/>
      </g>
     </g>
    </g>
    <g id="ytick_4">
     <g id="line2d_14">
      <g>
       <use style="stroke:#000000;stroke-width:0.8;" x="126" xlink:href="#mdeb8436e6b" y="167.590062"/>
      </g>
     </g>
     <g id="text_14">
      <!-- 300 -->
      <defs>
       <path d="M 40.578125 39.3125 
Q 47.65625 37.796875 51.625 33 
Q 55.609375 28.21875 55.609375 21.1875 
Q 55.609375 10.40625 48.1875 4.484375 
Q 40.765625 -1.421875 27.09375 -1.421875 
Q 22.515625 -1.421875 17.65625 -0.515625 
Q 12.796875 0.390625 7.625 2.203125 
L 7.625 11.71875 
Q 11.71875 9.328125 16.59375 8.109375 
Q 21.484375 6.890625 26.8125 6.890625 
Q 36.078125 6.890625 40.9375 10.546875 
Q 45.796875 14.203125 45.796875 21.1875 
Q 45.796875 27.640625 41.28125 31.265625 
Q 36.765625 34.90625 28.71875 34.90625 
L 20.21875 34.90625 
L 20.21875 43.015625 
L 29.109375 43.015625 
Q 36.375 43.015625 40.234375 45.921875 
Q 44.09375 48.828125 44.09375 54.296875 
Q 44.09375 59.90625 40.109375 62.90625 
Q 36.140625 65.921875 28.71875 65.921875 
Q 24.65625 65.921875 20.015625 65.03125 
Q 15.375 64.15625 9.8125 62.3125 
L 9.8125 71.09375 
Q 15.4375 72.65625 20.34375 73.4375 
Q 25.25 74.21875 29.59375 74.21875 
Q 40.828125 74.21875 47.359375 69.109375 
Q 53.90625 64.015625 53.90625 55.328125 
Q 53.90625 49.265625 50.4375 45.09375 
Q 46.96875 40.921875 40.578125 39.3125 
z
" id="DejaVuSans-51"/>
      </defs>
      <g transform="translate(99.9125 171.389281)scale(0.1 -0.1)">
       <use xlink:href="#DejaVuSans-51"/>
       <use x="63.623047" xlink:href="#DejaVuSans-48"/>
       <use x="127.246094" xlink:href="#DejaVuSans-48"/>
      </g>
     </g>
    </g>
    <g id="ytick_5">
     <g id="line2d_15">
      <g>
       <use style="stroke:#000000;stroke-width:0.8;" x="126" xlink:href="#mdeb8436e6b" y="139.453416"/>
      </g>
     </g>
     <g id="text_15">
      <!-- 400 -->
      <g transform="translate(99.9125 143.252635)scale(0.1 -0.1)">
       <use xlink:href="#DejaVuSans-52"/>
       <use x="63.623047" xlink:href="#DejaVuSans-48"/>
       <use x="127.246094" xlink:href="#DejaVuSans-48"/>
      </g>
     </g>
    </g>
    <g id="ytick_6">
     <g id="line2d_16">
      <g>
       <use style="stroke:#000000;stroke-width:0.8;" x="126" xlink:href="#mdeb8436e6b" y="111.31677"/>
      </g>
     </g>
     <g id="text_16">
      <!-- 500 -->
      <defs>
       <path d="M 10.796875 72.90625 
L 49.515625 72.90625 
L 49.515625 64.59375 
L 19.828125 64.59375 
L 19.828125 46.734375 
Q 21.96875 47.46875 24.109375 47.828125 
Q 26.265625 48.1875 28.421875 48.1875 
Q 40.625 48.1875 47.75 41.5 
Q 54.890625 34.8125 54.890625 23.390625 
Q 54.890625 11.625 47.5625 5.09375 
Q 40.234375 -1.421875 26.90625 -1.421875 
Q 22.3125 -1.421875 17.546875 -0.640625 
Q 12.796875 0.140625 7.71875 1.703125 
L 7.71875 11.625 
Q 12.109375 9.234375 16.796875 8.0625 
Q 21.484375 6.890625 26.703125 6.890625 
Q 35.15625 6.890625 40.078125 11.328125 
Q 45.015625 15.765625 45.015625 23.390625 
Q 45.015625 31 40.078125 35.4375 
Q 35.15625 39.890625 26.703125 39.890625 
Q 22.75 39.890625 18.8125 39.015625 
Q 14.890625 38.140625 10.796875 36.28125 
z
" id="DejaVuSans-53"/>
      </defs>
      <g transform="translate(99.9125 115.115989)scale(0.1 -0.1)">
       <use xlink:href="#DejaVuSans-53"/>
       <use x="63.623047" xlink:href="#DejaVuSans-48"/>
       <use x="127.246094" xlink:href="#DejaVuSans-48"/>
      </g>
     </g>
    </g>
    <g id="ytick_7">
     <g id="line2d_17">
      <g>
       <use style="stroke:#000000;stroke-width:0.8;" x="126" xlink:href="#mdeb8436e6b" y="83.180124"/>
      </g>
     </g>
     <g id="text_17">
      <!-- 600 -->
      <g transform="translate(99.9125 86.979343)scale(0.1 -0.1)">
       <use xlink:href="#DejaVuSans-54"/>
       <use x="63.623047" xlink:href="#DejaVuSans-48"/>
       <use x="127.246094" xlink:href="#DejaVuSans-48"/>
      </g>
     </g>
    </g>
    <g id="ytick_8">
     <g id="line2d_18">
      <g>
       <use style="stroke:#000000;stroke-width:0.8;" x="126" xlink:href="#mdeb8436e6b" y="55.043478"/>
      </g>
     </g>
     <g id="text_18">
      <!-- 700 -->
      <g transform="translate(99.9125 58.842697)scale(0.1 -0.1)">
       <use xlink:href="#DejaVuSans-55"/>
       <use x="63.623047" xlink:href="#DejaVuSans-48"/>
       <use x="127.246094" xlink:href="#DejaVuSans-48"/>
      </g>
     </g>
    </g>
   </g>
   <g id="patch_123">
    <path d="M 126 252 
L 126 34.56 
" style="fill:none;stroke:#000000;stroke-linecap:square;stroke-linejoin:miter;stroke-width:0.8;"/>
   </g>
   <g id="patch_124">
    <path d="M 907.2 252 
L 907.2 34.56 
" style="fill:none;stroke:#000000;stroke-linecap:square;stroke-linejoin:miter;stroke-width:0.8;"/>
   </g>
   <g id="patch_125">
    <path d="M 126 252 
L 907.2 252 
" style="fill:none;stroke:#000000;stroke-linecap:square;stroke-linejoin:miter;stroke-width:0.8;"/>
   </g>
   <g id="patch_126">
    <path d="M 126 34.56 
L 907.2 34.56 
" style="fill:none;stroke:#000000;stroke-linecap:square;stroke-linejoin:miter;stroke-width:0.8;"/>
   </g>
   <g id="text_19">
    <!-- Nachrichten pro Zeit -->
    <defs>
     <path d="M 9.8125 72.90625 
L 23.09375 72.90625 
L 55.421875 11.921875 
L 55.421875 72.90625 
L 64.984375 72.90625 
L 64.984375 0 
L 51.703125 0 
L 19.390625 60.984375 
L 19.390625 0 
L 9.8125 0 
z
" id="DejaVuSans-78"/>
     <path d="M 34.28125 27.484375 
Q 23.390625 27.484375 19.1875 25 
Q 14.984375 22.515625 14.984375 16.5 
Q 14.984375 11.71875 18.140625 8.90625 
Q 21.296875 6.109375 26.703125 6.109375 
Q 34.1875 6.109375 38.703125 11.40625 
Q 43.21875 16.703125 43.21875 25.484375 
L 43.21875 27.484375 
z
M 52.203125 31.203125 
L 52.203125 0 
L 43.21875 0 
L 43.21875 8.296875 
Q 40.140625 3.328125 35.546875 0.953125 
Q 30.953125 -1.421875 24.3125 -1.421875 
Q 15.921875 -1.421875 10.953125 3.296875 
Q 6 8.015625 6 15.921875 
Q 6 25.140625 12.171875 29.828125 
Q 18.359375 34.515625 30.609375 34.515625 
L 43.21875 34.515625 
L 43.21875 35.40625 
Q 43.21875 41.609375 39.140625 45 
Q 35.0625 48.390625 27.6875 48.390625 
Q 23 48.390625 18.546875 47.265625 
Q 14.109375 46.140625 10.015625 43.890625 
L 10.015625 52.203125 
Q 14.9375 54.109375 19.578125 55.046875 
Q 24.21875 56 28.609375 56 
Q 40.484375 56 46.34375 49.84375 
Q 52.203125 43.703125 52.203125 31.203125 
z
" id="DejaVuSans-97"/>
     <path d="M 48.78125 52.59375 
L 48.78125 44.1875 
Q 44.96875 46.296875 41.140625 47.34375 
Q 37.3125 48.390625 33.40625 48.390625 
Q 24.65625 48.390625 19.8125 42.84375 
Q 14.984375 37.3125 14.984375 27.296875 
Q 14.984375 17.28125 19.8125 11.734375 
Q 24.65625 6.203125 33.40625 6.203125 
Q 37.3125 6.203125 41.140625 7.25 
Q 44.96875 8.296875 48.78125 10.40625 
L 48.78125 2.09375 
Q 45.015625 0.34375 40.984375 -0.53125 
Q 36.96875 -1.421875 32.421875 -1.421875 
Q 20.0625 -1.421875 12.78125 6.34375 
Q 5.515625 14.109375 5.515625 27.296875 
Q 5.515625 40.671875 12.859375 48.328125 
Q 20.21875 56 33.015625 56 
Q 37.15625 56 41.109375 55.140625 
Q 45.0625 54.296875 48.78125 52.59375 
z
" id="DejaVuSans-99"/>
     <path d="M 54.890625 33.015625 
L 54.890625 0 
L 45.90625 0 
L 45.90625 32.71875 
Q 45.90625 40.484375 42.875 44.328125 
Q 39.84375 48.1875 33.796875 48.1875 
Q 26.515625 48.1875 22.3125 43.546875 
Q 18.109375 38.921875 18.109375 30.90625 
L 18.109375 0 
L 9.078125 0 
L 9.078125 75.984375 
L 18.109375 75.984375 
L 18.109375 46.1875 
Q 21.34375 51.125 25.703125 53.5625 
Q 30.078125 56 35.796875 56 
Q 45.21875 56 50.046875 50.171875 
Q 54.890625 44.34375 54.890625 33.015625 
z
" id="DejaVuSans-104"/>
     <path d="M 41.109375 46.296875 
Q 39.59375 47.171875 37.8125 47.578125 
Q 36.03125 48 33.890625 48 
Q 26.265625 48 22.1875 43.046875 
Q 18.109375 38.09375 18.109375 28.8125 
L 18.109375 0 
L 9.078125 0 
L 9.078125 54.6875 
L 18.109375 54.6875 
L 18.109375 46.1875 
Q 20.953125 51.171875 25.484375 53.578125 
Q 30.03125 56 36.53125 56 
Q 37.453125 56 38.578125 55.875 
Q 39.703125 55.765625 41.0625 55.515625 
z
" id="DejaVuSans-114"/>
     <path d="M 9.421875 54.6875 
L 18.40625 54.6875 
L 18.40625 0 
L 9.421875 0 
z
M 9.421875 75.984375 
L 18.40625 75.984375 
L 18.40625 64.59375 
L 9.421875 64.59375 
z
" id="DejaVuSans-105"/>
     <path d="M 18.3125 70.21875 
L 18.3125 54.6875 
L 36.8125 54.6875 
L 36.8125 47.703125 
L 18.3125 47.703125 
L 18.3125 18.015625 
Q 18.3125 11.328125 20.140625 9.421875 
Q 21.96875 7.515625 27.59375 7.515625 
L 36.8125 7.515625 
L 36.8125 0 
L 27.59375 0 
Q 17.1875 0 13.234375 3.875 
Q 9.28125 7.765625 9.28125 18.015625 
L 9.28125 47.703125 
L 2.6875 47.703125 
L 2.6875 54.6875 
L 9.28125 54.6875 
L 9.28125 70.21875 
z
" id="DejaVuSans-116"/>
     <path d="M 56.203125 29.59375 
L 56.203125 25.203125 
L 14.890625 25.203125 
Q 15.484375 15.921875 20.484375 11.0625 
Q 25.484375 6.203125 34.421875 6.203125 
Q 39.59375 6.203125 44.453125 7.46875 
Q 49.3125 8.734375 54.109375 11.28125 
L 54.109375 2.78125 
Q 49.265625 0.734375 44.1875 -0.34375 
Q 39.109375 -1.421875 33.890625 -1.421875 
Q 20.796875 -1.421875 13.15625 6.1875 
Q 5.515625 13.8125 5.515625 26.8125 
Q 5.515625 40.234375 12.765625 48.109375 
Q 20.015625 56 32.328125 56 
Q 43.359375 56 49.78125 48.890625 
Q 56.203125 41.796875 56.203125 29.59375 
z
M 47.21875 32.234375 
Q 47.125 39.59375 43.09375 43.984375 
Q 39.0625 48.390625 32.421875 48.390625 
Q 24.90625 48.390625 20.390625 44.140625 
Q 15.875 39.890625 15.1875 32.171875 
z
" id="DejaVuSans-101"/>
     <path d="M 54.890625 33.015625 
L 54.890625 0 
L 45.90625 0 
L 45.90625 32.71875 
Q 45.90625 40.484375 42.875 44.328125 
Q 39.84375 48.1875 33.796875 48.1875 
Q 26.515625 48.1875 22.3125 43.546875 
Q 18.109375 38.921875 18.109375 30.90625 
L 18.109375 0 
L 9.078125 0 
L 9.078125 54.6875 
L 18.109375 54.6875 
L 18.109375 46.1875 
Q 21.34375 51.125 25.703125 53.5625 
Q 30.078125 56 35.796875 56 
Q 45.21875 56 50.046875 50.171875 
Q 54.890625 44.34375 54.890625 33.015625 
z
" id="DejaVuSans-110"/>
     <path id="DejaVuSans-32"/>
     <path d="M 18.109375 8.203125 
L 18.109375 -20.796875 
L 9.078125 -20.796875 
L 9.078125 54.6875 
L 18.109375 54.6875 
L 18.109375 46.390625 
Q 20.953125 51.265625 25.265625 53.625 
Q 29.59375 56 35.59375 56 
Q 45.5625 56 51.78125 48.09375 
Q 58.015625 40.1875 58.015625 27.296875 
Q 58.015625 14.40625 51.78125 6.484375 
Q 45.5625 -1.421875 35.59375 -1.421875 
Q 29.59375 -1.421875 25.265625 0.953125 
Q 20.953125 3.328125 18.109375 8.203125 
z
M 48.6875 27.296875 
Q 48.6875 37.203125 44.609375 42.84375 
Q 40.53125 48.484375 33.40625 48.484375 
Q 26.265625 48.484375 22.1875 42.84375 
Q 18.109375 37.203125 18.109375 27.296875 
Q 18.109375 17.390625 22.1875 11.75 
Q 26.265625 6.109375 33.40625 6.109375 
Q 40.53125 6.109375 44.609375 11.75 
Q 48.6875 17.390625 48.6875 27.296875 
z
" id="DejaVuSans-112"/>
     <path d="M 30.609375 48.390625 
Q 23.390625 48.390625 19.1875 42.75 
Q 14.984375 37.109375 14.984375 27.296875 
Q 14.984375 17.484375 19.15625 11.84375 
Q 23.34375 6.203125 30.609375 6.203125 
Q 37.796875 6.203125 41.984375 11.859375 
Q 46.1875 17.53125 46.1875 27.296875 
Q 46.1875 37.015625 41.984375 42.703125 
Q 37.796875 48.390625 30.609375 48.390625 
z
M 30.609375 56 
Q 42.328125 56 49.015625 48.375 
Q 55.71875 40.765625 55.71875 27.296875 
Q 55.71875 13.875 49.015625 6.21875 
Q 42.328125 -1.421875 30.609375 -1.421875 
Q 18.84375 -1.421875 12.171875 6.21875 
Q 5.515625 13.875 5.515625 27.296875 
Q 5.515625 40.765625 12.171875 48.375 
Q 18.84375 56 30.609375 56 
z
" id="DejaVuSans-111"/>
     <path d="M 5.609375 72.90625 
L 62.890625 72.90625 
L 62.890625 65.375 
L 16.796875 8.296875 
L 64.015625 8.296875 
L 64.015625 0 
L 4.5 0 
L 4.5 7.515625 
L 50.59375 64.59375 
L 5.609375 64.59375 
z
" id="DejaVuSans-90"/>
    </defs>
    <g transform="translate(454.671563 28.56)scale(0.12 -0.12)">
     <use xlink:href="#DejaVuSans-78"/>
     <use x="74.804688" xlink:href="#DejaVuSans-97"/>
     <use x="136.083984" xlink:href="#DejaVuSans-99"/>
     <use x="191.064453" xlink:href="#DejaVuSans-104"/>
     <use x="254.443359" xlink:href="#DejaVuSans-114"/>
     <use x="295.556641" xlink:href="#DejaVuSans-105"/>
     <use x="323.339844" xlink:href="#DejaVuSans-99"/>
     <use x="378.320312" xlink:href="#DejaVuSans-104"/>
     <use x="441.699219" xlink:href="#DejaVuSans-116"/>
     <use x="480.908203" xlink:href="#DejaVuSans-101"/>
     <use x="542.431641" xlink:href="#DejaVuSans-110"/>
     <use x="605.810547" xlink:href="#DejaVuSans-32"/>
     <use x="637.597656" xlink:href="#DejaVuSans-112"/>
     <use x="701.074219" xlink:href="#DejaVuSans-114"/>
     <use x="742.15625" xlink:href="#DejaVuSans-111"/>
     <use x="803.337891" xlink:href="#DejaVuSans-32"/>
     <use x="835.125" xlink:href="#DejaVuSans-90"/>
     <use x="903.630859" xlink:href="#DejaVuSans-101"/>
     <use x="965.154297" xlink:href="#DejaVuSans-105"/>
     <use x="992.9375" xlink:href="#DejaVuSans-116"/>
    </g>
   </g>
  </g>
 </g>
 <defs>
  <clipPath id="p5280bcfb24">
   <rect height="217.44" width="781.2" x="126" y="34.56"/>
  </clipPath>
 </defs>
</svg>
